<svg width="277" height="207" viewBox="0 0 277 207" fill="none" xmlns="http://www.w3.org/2000/svg">
<circle cx="123.5" cy="26.5" r="2.5" fill="#030218"/>
<circle cx="26" cy="123" r="2.5" fill="#030218"/>
<circle cx="92" cy="188" r="2.5" fill="#030218"/>
<circle cx="231" cy="138" r="2.5" fill="#030218"/>
<circle cx="62" cy="27" r="2.5" fill="#030218"/>
<rect x="64" y="36" width="150" height="150" rx="75" fill="#030218"/>
<path d="M114.953 83.1562C111.932 83.1562 109.035 84.3563 106.899 86.4925C104.763 88.6286 103.562 91.5259 103.562 94.5469V98.3438H174.438V94.5469C174.438 91.5259 173.237 88.6286 171.101 86.4925C168.965 84.3563 166.068 83.1562 163.047 83.1562H114.953ZM103.562 127.453V103.406H174.438V127.453C174.438 130.474 173.237 133.371 171.101 135.508C168.965 137.644 166.068 138.844 163.047 138.844H114.953C111.932 138.844 109.035 137.644 106.899 135.508C104.763 133.371 103.562 130.474 103.562 127.453ZM151.656 118.594C150.985 118.594 150.341 118.86 149.866 119.335C149.392 119.81 149.125 120.454 149.125 121.125C149.125 121.796 149.392 122.44 149.866 122.915C150.341 123.39 150.985 123.656 151.656 123.656H159.25C159.921 123.656 160.565 123.39 161.04 122.915C161.515 122.44 161.781 121.796 161.781 121.125C161.781 120.454 161.515 119.81 161.04 119.335C160.565 118.86 159.921 118.594 159.25 118.594H151.656Z" fill="white"/>
<circle cx="28.5" cy="163.5" r="7.5" fill="#030218"/>
<circle cx="191.5" cy="175.5" r="7.5" fill="#030218"/>
<circle cx="221.5" cy="68.5" r="7.5" fill="#030218"/>
<circle cx="28.5" cy="16.5" r="7.5" fill="#030218"/>
<circle cx="36" cy="86" r="10" fill="#030218"/>
</svg>
