<svg width="251" height="207" viewBox="0 0 251 207" fill="none" xmlns="http://www.w3.org/2000/svg">
<circle cx="123.5" cy="26.5" r="2.5" fill="#030218"/>
<circle cx="26" cy="123" r="2.5" fill="#030218"/>
<circle cx="92" cy="188" r="2.5" fill="#030218"/>
<circle cx="231" cy="138" r="2.5" fill="#030218"/>
<circle cx="62" cy="27" r="2.5" fill="#030218"/>
<rect x="51" y="36" width="150" height="150" rx="75" fill="#030218"/>
<path d="M136.821 113.07C139.68 110.82 141.767 107.735 142.792 104.244C143.816 100.753 143.727 97.029 142.537 93.5909C141.346 90.1527 139.114 87.1711 136.15 85.0608C133.186 82.9504 129.638 81.8164 126 81.8164C122.362 81.8164 118.814 82.9504 115.85 85.0608C112.886 87.1711 110.653 90.1527 109.463 93.5909C108.273 97.029 108.184 100.753 109.208 104.244C110.233 107.735 112.32 110.82 115.179 113.07C110.279 115.033 106.004 118.289 102.809 122.491C99.6144 126.692 97.6195 131.682 97.0375 136.928C96.9954 137.311 97.0291 137.699 97.1367 138.069C97.2444 138.439 97.4239 138.784 97.6649 139.085C98.1517 139.692 98.8598 140.081 99.6333 140.166C100.407 140.251 101.183 140.025 101.79 139.538C102.397 139.052 102.786 138.343 102.871 137.57C103.511 131.868 106.23 126.603 110.507 122.779C114.785 118.955 120.321 116.841 126.058 116.841C131.796 116.841 137.332 118.955 141.609 122.779C145.887 126.603 148.605 131.868 149.246 137.57C149.325 138.287 149.667 138.949 150.206 139.428C150.744 139.907 151.441 140.17 152.162 140.166H152.483C153.248 140.078 153.947 139.691 154.427 139.09C154.908 138.489 155.132 137.723 155.05 136.957C154.465 131.696 152.46 126.694 149.248 122.486C146.037 118.277 141.741 115.023 136.821 113.07ZM126 110.999C123.693 110.999 121.437 110.315 119.518 109.033C117.6 107.751 116.104 105.929 115.221 103.797C114.338 101.665 114.107 99.3195 114.557 97.0564C115.008 94.7933 116.119 92.7145 117.75 91.0829C119.382 89.4512 121.461 88.3401 123.724 87.8899C125.987 87.4398 128.333 87.6708 130.465 88.5538C132.596 89.4369 134.419 90.9322 135.7 92.8508C136.982 94.7694 137.667 97.025 137.667 99.3324C137.667 102.427 136.437 105.394 134.25 107.582C132.062 109.77 129.094 110.999 126 110.999Z" fill="white"/>
<circle cx="28.5" cy="163.5" r="7.5" fill="#030218"/>
<circle cx="191.5" cy="175.5" r="7.5" fill="#030218"/>
<circle cx="221.5" cy="68.5" r="7.5" fill="#030218"/>
<circle cx="28.5" cy="16.5" r="7.5" fill="#030218"/>
<circle cx="36" cy="86" r="10" fill="#030218"/>
</svg>
