<svg width="251" height="207" viewBox="0 0 251 207" fill="none" xmlns="http://www.w3.org/2000/svg">
<circle cx="123.5" cy="26.5" r="2.5" fill="#030218"/>
<circle cx="26" cy="123" r="2.5" fill="#030218"/>
<circle cx="92" cy="188" r="2.5" fill="#030218"/>
<circle cx="231" cy="138" r="2.5" fill="#030218"/>
<circle cx="62" cy="27" r="2.5" fill="#030218"/>
<rect x="51" y="36" width="150" height="150" rx="75" fill="#030218"/>
<path d="M119.623 96.0525C119.623 98.24 119.623 100.36 120.312 102.346C113.06 110.86 93.9111 133.358 92.1274 135.074C91.7729 135.392 91.4893 135.781 91.2951 136.216C91.1008 136.651 91.0003 137.122 91 137.598C91 139.028 91.875 140.408 92.6154 141.182C93.726 142.343 98.4712 146.735 99.3462 145.894C101.938 143.37 102.459 142.697 103.519 141.653C105.118 140.088 103.351 136.891 103.906 135.596C104.462 134.3 105.05 134.048 106.01 133.846C106.969 133.644 108.668 134.334 109.998 134.35C111.394 134.367 112.151 133.778 113.195 132.802C114.036 132.028 114.642 131.305 114.659 130.177C114.692 128.663 112.505 126.661 114.137 125.062C115.769 123.463 118.125 126.105 119.858 125.903C121.591 125.701 123.695 123.295 123.913 122.269C124.132 121.242 121.945 118.601 122.281 117.103C122.399 116.598 123.425 115.42 124.2 115.252C124.974 115.084 128.406 116.413 129.18 116.245C130.123 116.043 131.216 115.05 132.108 114.495C134.716 115.622 137.089 116.076 140.135 116.076C151.661 116.076 161 107.091 161 96.0189C161 84.9468 151.661 76 140.135 76C128.608 76 119.623 84.9805 119.623 96.0525ZM150.231 92.1538C150.231 93.2187 149.915 94.2598 149.323 95.1453C148.732 96.0308 147.891 96.7209 146.907 97.1285C145.923 97.536 144.84 97.6427 143.796 97.4349C142.751 97.2271 141.792 96.7143 141.039 95.9613C140.286 95.2082 139.773 94.2488 139.565 93.2043C139.357 92.1597 139.464 91.0771 139.871 90.0932C140.279 89.1093 140.969 88.2683 141.855 87.6766C142.74 87.085 143.781 86.7692 144.846 86.7692C146.274 86.7692 147.644 87.3365 148.654 88.3463C149.663 89.3561 150.231 90.7257 150.231 92.1538Z" fill="white"/>
<circle cx="28.5" cy="163.5" r="7.5" fill="#030218"/>
<circle cx="191.5" cy="175.5" r="7.5" fill="#030218"/>
<circle cx="221.5" cy="68.5" r="7.5" fill="#030218"/>
<circle cx="28.5" cy="16.5" r="7.5" fill="#030218"/>
<circle cx="36" cy="86" r="10" fill="#030218"/>
</svg>
