<svg width="256" height="150" viewBox="0 0 256 150" fill="none" xmlns="http://www.w3.org/2000/svg">
<path d="M207.5 76C199.5 64.8 185.5 59.6667 180 59.5L182 53L186.5 45L197 46.5L207.5 76Z" fill="#2E2E2E" stroke="black"/>
<g filter="url(#filter0_f_1666_8650)">
<path d="M38.594 126C35.2989 126 26.924 122 23.1484 120L27.2672 118L81.8415 120L77.2078 126C76.3498 126.667 74.0158 128.1 71.5445 128.5C68.4554 129 63.8217 129.5 61.7623 130.5C59.7029 131.5 57.6435 131.5 51.9801 129.5C46.3168 127.5 42.7128 126 38.594 126Z" fill="black"/>
</g>
<g filter="url(#filter1_f_1666_8650)">
<path d="M180.694 141C183.989 141 187.724 123 191.5 121L180.694 122L126 114.5L130.753 130C131.611 130.667 133.945 132.1 136.416 132.5C139.506 133 139.941 134 142 135C144.059 136 159.494 141 165.5 141H180.694Z" fill="black"/>
</g>
<g opacity="0.71" filter="url(#filter2_f_1666_8650)">
<path d="M122.5 137C136.5 137 139.988 121.66 148 119.623L125.068 120.642L9 113L19.0867 128.792C20.9077 129.472 25.8608 130.932 31.1052 131.34C37.6607 131.849 38.5839 132.868 42.9542 133.887C47.3245 134.906 77.7541 138.5 90.5 138.5C105.355 138.5 113.759 137 122.5 137Z" fill="black"/>
</g>
<g opacity="0.71" filter="url(#filter3_f_1666_8650)">
<path d="M203.5 130C217.5 130 238.488 111.538 246.5 109.5L223.068 110.642L107 103L117.087 118.792C118.908 119.472 123.861 120.932 129.105 121.34C135.661 121.849 136.584 122.868 140.954 123.887C145.325 124.906 175.754 128.5 188.5 128.5C203.355 128.5 194.759 130 203.5 130Z" fill="black"/>
</g>
<path d="M168.842 37.1006L43.6295 51.7531L32.3072 57.0813L29.6431 61.7434L40.5 74L62.2782 76.3959L119.556 68.4036L168.842 37.1006Z" fill="#FF0000" stroke="black" stroke-width="1.33204"/>
<path d="M214.797 100.372C214.797 122.486 198.057 140.334 177.5 140.334C156.943 140.334 140.203 122.486 140.203 100.372C140.203 78.2592 156.943 60.4111 177.5 60.4111C198.057 60.4111 214.797 78.2592 214.797 100.372Z" fill="black" stroke="black" stroke-width="1.33204"/>
<path d="M204.141 98.3743C204.141 112.037 193.952 123.017 181.496 123.017C169.04 123.017 158.852 112.037 158.852 98.3743C158.852 84.7118 169.04 73.7315 181.496 73.7315C193.952 73.7315 204.141 84.7118 204.141 98.3743Z" fill="#BEBEBE" stroke="black" stroke-width="1.33204"/>
<path d="M48.9575 99.0404C48.9575 116.329 91.5829 135.672 26.9787 131.009C13.6583 129.011 5 116.329 5 99.0404C5 81.7522 14.8402 67.7373 26.9787 67.7373C39.1173 67.7373 48.9575 81.7522 48.9575 99.0404Z" fill="black"/>
<path d="M197.481 97.7082C197.481 107.986 188.855 116.357 178.166 116.357C167.478 116.357 158.852 107.986 158.852 97.7082C158.852 87.43 167.478 79.0596 178.166 79.0596C188.855 79.0596 197.481 87.43 197.481 97.7082Z" fill="url(#paint0_radial_1666_8650)" stroke="black" stroke-width="1.33204"/>
<path d="M244 70.5L241.5 40C240.39 40.444 238.108 41.8959 235.444 45.0928C232.78 48.2897 229.444 70.2838 229 76.5L244 70.5Z" fill="black" stroke="black" stroke-width="1.33204"/>
<path d="M236.5 117.5C231.746 113.78 229.066 96.0083 228.846 88C224.004 91.6167 214.321 99.47 214.321 101.95C214.321 104.43 212.94 112.85 212.5 117.5H236.5Z" fill="black" stroke="black" stroke-width="1.33204"/>
<path d="M229.45 6.46365C225.453 5.79763 192.666 9.16602 192 8.5L207.471 35.1025L237 18C235.89 14.8919 232.646 6.99647 229.45 6.46365Z" fill="#FF0000" stroke="black" stroke-width="1.33204"/>
<path d="M136.207 14.4554C114.361 10.7257 92.4712 24.0018 84.2569 31.106C81.5928 32.7045 77.8187 42.4284 76.2646 47.0905L184.16 35.7681L180.83 17.1192C163.247 2.73314 143.755 9.34917 136.207 14.4554Z" fill="#D9D9D9"/>
<path d="M70.9363 47.757L47.6255 50.4211C57.6158 49.977 77.3301 48.8225 76.2645 47.757C74.9324 46.4251 86.2548 24.4461 88.2529 21.782C90.2509 19.1179 102.35 10.4596 137.539 5.79759C172.727 1.13558 174.836 8.46153 177.5 10.4596C179.631 12.0581 182.384 27.1102 183.494 34.4364L190.154 41.0966L200.811 42.4287L204.141 35.7685L206.805 29.7743C200.811 13.7897 195.482 10.4597 188.822 5.79759C182.162 1.13543 160.183 -1.52866 124.884 4.46555C96.6447 9.26091 85.1448 19.34 82.9247 23.7802L70.9363 47.757Z" fill="#FF0000" stroke="black" stroke-width="1.33204"/>
<path d="M12.3267 77.062C13.9251 65.34 24.0931 56.6373 28.9772 53.7512L47 50.5C45.668 52.0541 41.0987 56.2824 36.3034 61.0778C30.3092 67.072 51.6219 71.7341 66.2744 72.4002C80.9269 73.0662 115.56 65.0739 122.22 63.7415C128.881 62.4091 132.877 52.4195 162.182 39.7651C191.487 27.1106 181.496 39.7649 193.485 41.0971C205.473 42.4294 202.809 25.1124 224.788 17.7861C242.371 11.9251 243.214 29.9965 241.438 39.7649C231.848 40.2977 228.278 71.9595 228.5 87.5L213.465 99.7069C212.933 78.927 204.496 70.1641 200.5 67.5L200 64C196.27 46.9498 191.709 44.6489 189.489 45.7589C175.502 47.091 167.51 114.359 167.51 116.357C167.51 118.355 156.853 121.019 127.548 127.014C98.2435 133.008 64.2763 131.676 46.2937 129.012C28.3111 126.348 21.651 123.018 16.9888 112.361C12.3267 101.705 10.3286 91.7145 12.3267 77.062Z" fill="#FF0000" stroke="black" stroke-width="1.33204"/>
<path d="M108.9 33.7708C108.9 27.5175 113.969 22.4482 120.222 22.4482C126.476 22.4482 131.545 27.5174 131.545 33.7705V40.4308L108.9 43.0949L108.9 33.7708Z" fill="black"/>
<path d="M142.201 29.7747C142.201 23.5215 147.27 18.4521 153.523 18.4521C159.776 18.4521 164.845 23.5213 164.845 29.7744V37.1008L142.201 39.0988L142.201 29.7747Z" fill="black"/>
<path fill-rule="evenodd" clip-rule="evenodd" d="M145.651 57.3563L122.22 67.0714V73.7316L151.525 71.7336L151.522 71.7106C155.994 71.3979 159.517 67.9494 159.517 63.7414C159.517 59.3274 155.641 55.7491 150.859 55.7491C150.41 55.7491 149.969 55.7807 149.539 55.8415L149.527 55.749L149.153 55.9043C147.858 56.1433 146.667 56.6488 145.651 57.3563Z" fill="#FD9732"/>
<path fill-rule="evenodd" clip-rule="evenodd" d="M21.627 79.7257C19.0653 79.7257 16.9886 76.1475 16.9886 71.7335C16.9886 67.3195 19.089 64.4072 21.6507 64.4072C22.4736 64.4072 23.2441 64.7078 23.9108 65.2621L37.6353 70.4014L36.9692 79.0597L21.8387 79.7176C21.7773 79.7223 21.7156 79.725 21.6537 79.7256L21.6507 79.7257L21.6507 79.7256C21.6428 79.7257 21.6349 79.7257 21.627 79.7257Z" fill="#FD9732"/>
<ellipse cx="25.6469" cy="71.7334" rx="3.33011" ry="3.99613" transform="rotate(180 25.6469 71.7334)" fill="#D9D9D9"/>
<circle cx="20.9848" cy="69.0693" r="1.33204" transform="rotate(180 20.9848 69.0693)" fill="#D9D9D9"/>
<path d="M130.336 102.544C130.144 99.2691 128.558 96.1105 125.675 93.2599C122.791 90.4093 118.669 87.9262 113.56 85.9615C108.451 83.9968 102.462 82.5915 95.9568 81.8312C89.4514 81.0709 82.5655 80.9713 75.7178 81.5386C68.8701 82.1059 62.2037 83.3282 56.1237 85.1312C50.0438 86.9342 44.6775 89.2801 40.3509 92.0265C36.0243 94.7729 32.8278 97.8623 30.9559 101.107C29.0839 104.352 28.5755 107.684 29.4616 110.9L79.697 105.507L130.336 102.544Z" fill="black"/>
<ellipse cx="237.5" cy="87" rx="8.5" ry="31" fill="#4D4D4D"/>
<ellipse cx="236.992" cy="85.6467" rx="7.99227" ry="20.6467" fill="#C8CEC0"/>
<ellipse cx="235.5" cy="87" rx="5.5" ry="14" fill="url(#paint1_radial_1666_8650)"/>
<path fill-rule="evenodd" clip-rule="evenodd" d="M192.619 20.0561C190.568 19.9095 188.823 21.5342 188.823 23.5908V35.1034V35.7694H188.859C189.191 38.7665 191.732 41.0976 194.817 41.0976C197.902 41.0976 200.443 38.7665 200.775 35.7694H200.811L200.788 35.6355C200.803 35.4602 200.811 35.2827 200.811 35.1034C200.811 34.203 200.613 33.3489 200.257 32.5826L199.097 25.9111C198.539 22.7032 195.867 20.2881 192.619 20.0561Z" fill="#DFDEDA"/>
<ellipse cx="148.195" cy="63.7413" rx="3.33011" ry="3.99613" fill="#D9D9D9"/>
<circle cx="152.857" cy="66.4053" r="1.33204" fill="#D9D9D9"/>
<g filter="url(#filter4_d_1666_8650)">
<path d="M206.656 41.9941C204.687 45.2244 202.681 46.3853 201.924 46.5619C202.934 46.5102 205.448 45.5604 207.426 42.1741C209.404 38.7879 213.893 36.1781 215.89 35.2965C213.219 36.0287 209.117 37.9562 206.656 41.9941Z" fill="#FF0000"/>
<path d="M205.779 53.1423C205.776 53.1666 205.768 53.197 205.756 53.2333C205.743 53.2706 205.728 53.3081 205.713 53.3456C205.71 53.3533 205.703 53.3739 205.69 53.4075C205.677 53.4411 205.667 53.4707 205.658 53.4965C205.65 53.5222 205.645 53.5445 205.643 53.5632C205.626 53.6888 205.634 53.8034 205.665 53.9069C205.696 54.0096 205.749 54.0992 205.822 54.1757C205.928 54.2863 206.064 54.3548 206.228 54.3812C206.391 54.4078 206.569 54.3839 206.762 54.3096C206.954 54.2344 207.144 54.1062 207.333 53.9249C207.525 53.7394 207.668 53.5494 207.759 53.3548C207.849 53.1604 207.885 52.9743 207.865 52.7964C207.844 52.6188 207.769 52.4619 207.638 52.3259C207.527 52.2102 207.399 52.1364 207.253 52.1045C207.106 52.0728 206.95 52.0886 206.786 52.1519L206.737 52.0787L207.05 51.7997C207.204 51.8299 207.359 51.8869 207.515 51.9706C207.669 52.0545 207.797 52.1487 207.897 52.2533C208.057 52.4199 208.158 52.6119 208.201 52.8293C208.244 53.0466 208.222 53.2713 208.136 53.5034C208.049 53.7354 207.898 53.9549 207.683 54.1619C207.48 54.3575 207.257 54.4962 207.014 54.578C206.77 54.6597 206.531 54.6745 206.294 54.6223C206.058 54.5702 205.848 54.4488 205.665 54.2584C205.498 54.084 205.371 53.8652 205.286 53.6017L205.718 53.0854L205.779 53.1423Z" fill="url(#paint2_linear_1666_8650)"/>
<path d="M204.033 51.3234C204.029 51.3478 204.022 51.3781 204.009 51.4144C203.996 51.4518 203.982 51.4892 203.967 51.5267C203.964 51.5344 203.956 51.555 203.943 51.5886C203.93 51.6222 203.92 51.6519 203.912 51.6776C203.904 51.7034 203.899 51.7256 203.896 51.7444C203.879 51.87 203.887 51.9845 203.919 52.0881C203.95 52.1908 204.002 52.2804 204.076 52.3569C204.182 52.4674 204.317 52.5359 204.482 52.5623C204.645 52.5889 204.822 52.5651 205.015 52.4908C205.207 52.4156 205.398 52.2873 205.586 52.106C205.779 51.9206 205.921 51.7306 206.013 51.536C206.103 51.3416 206.138 51.1554 206.119 50.9776C206.098 50.7999 206.022 50.643 205.891 50.507C205.78 50.3914 205.652 50.3176 205.507 50.2857C205.359 50.2539 205.203 50.2697 205.039 50.3331L204.99 50.2598L205.303 49.9809C205.457 50.0111 205.612 50.068 205.768 50.1517C205.923 50.2356 206.05 50.3298 206.15 50.4344C206.31 50.6011 206.412 50.7931 206.455 51.0104C206.497 51.2277 206.475 51.4524 206.389 51.6845C206.302 51.9166 206.152 52.1361 205.937 52.343C205.733 52.5387 205.51 52.6774 205.267 52.7591C205.024 52.8409 204.784 52.8557 204.547 52.8035C204.311 52.7513 204.101 52.63 203.918 52.4395C203.751 52.2652 203.625 52.0463 203.54 51.7829L203.972 51.2665L204.033 51.3234Z" fill="url(#paint3_linear_1666_8650)"/>
<path d="M209.736 52.5626L206.171 48.8689L207.371 47.7104C207.683 47.4088 207.978 47.1803 208.254 47.0247C208.532 46.8624 208.799 46.7957 209.055 46.8246C209.315 46.8498 209.567 46.9886 209.81 47.2409C209.957 47.3929 210.07 47.5447 210.15 47.6964C210.231 47.8413 210.273 47.9983 210.274 48.1674C210.276 48.3298 210.228 48.5085 210.129 48.7036L212.508 49.887L211.542 50.8193L209.395 49.6588L209.063 49.9788L210.679 51.6523L209.736 52.5626ZM208.632 49.5319L208.906 49.2671C209.059 49.12 209.16 48.9844 209.209 48.8602C209.259 48.7361 209.262 48.618 209.22 48.5059C209.179 48.387 209.102 48.2683 208.987 48.1497C208.823 47.9795 208.658 47.8889 208.493 47.878C208.329 47.8603 208.14 47.9545 207.927 48.1604L207.607 48.4694L208.632 49.5319Z" fill="url(#paint4_linear_1666_8650)"/>
<path d="M213.982 48.4637L210.417 44.77L212.435 42.8226L212.936 43.3425L211.862 44.3796L212.808 45.36L213.637 44.5601L214.143 45.0845L213.314 45.8844L214.432 47.0427L215.518 45.9945L216.011 46.5052L213.982 48.4637Z" fill="url(#paint5_linear_1666_8650)"/>
<path d="M217.403 45.1621L213.837 41.4684L214.495 40.834L217.381 41.7653L215.524 39.841L216.301 39.0907L219.866 42.7844L219.237 43.3912L216.237 42.3413L218.209 44.3842L217.403 45.1621Z" fill="url(#paint6_linear_1666_8650)"/>
<path d="M221.916 40.8055L218.892 37.6727L218.178 38.3623L217.637 37.8014L220.003 35.5175L220.544 36.0784L219.841 36.757L222.865 39.8898L221.916 40.8055Z" fill="url(#paint7_linear_1666_8650)"/>
<path d="M224.512 38.3001L221.844 33.7403L222.89 32.7308L227.347 35.5638L226.472 36.4079L225.523 35.7562L224.791 36.4623L225.398 37.445L224.512 38.3001ZM224.433 35.919L224.987 35.3839L223.268 34.163L224.433 35.919Z" fill="url(#paint8_linear_1666_8650)"/>
<path d="M228.73 34.2283L225.165 30.5347L226.108 29.6244L229.18 32.8074L230.266 31.7592L230.759 32.2699L228.73 34.2283Z" fill="url(#paint9_linear_1666_8650)"/>
<path d="M208.17 44.2506C203.162 47.2325 202.544 49.8594 202.86 50.8001C201.882 49.7862 203.889 45.5342 209.638 42.2994C215.387 39.0646 215.749 36.5794 220.213 32.6262C223.784 29.4637 225.823 28.635 226.397 28.616C222.254 30.656 217.583 36.2331 215.822 38.2892C214.061 40.3452 214.429 40.5232 208.17 44.2506Z" fill="url(#paint10_linear_1666_8650)"/>
</g>
<ellipse cx="153" cy="30.5" rx="5" ry="5.5" fill="#D9D9D9"/>
<ellipse cx="120" cy="34.5" rx="5" ry="5.5" fill="#D9D9D9"/>
<circle cx="149" cy="24" r="1" fill="#D9D9D9"/>
<circle cx="116" cy="28" r="1" fill="#D9D9D9"/>
<circle cx="152.5" cy="22.5" r="1.5" fill="#D9D9D9"/>
<circle cx="112" cy="31" r="2" fill="#D9D9D9"/>
<path d="M77.5872 100.848C69.6797 98.3139 65.0318 104.248 61.0002 107.097L77.1712 105.356L93 104C87.1813 99.152 80.2289 100.072 77.5872 100.848Z" fill="#FF000D"/>
<path d="M82.1468 104.858C81.0079 103.284 77.9824 101.035 78.1626 101.048C78.3654 101.061 77.7802 100.91 77.5872 100.848M77.5872 100.848C69.6797 98.3139 65.0318 104.248 61.0002 107.097L77.1712 105.356L93 104C87.1813 99.152 80.2289 100.072 77.5872 100.848Z" stroke="black"/>
<path d="M115 86.5005L37 94.5003C39.5 92.0003 48.5 86.5003 66 82.4999C83.6855 78.4571 106.5 82.4999 115 86.5005Z" fill="#D9D9D9"/>
<defs>
<filter id="filter0_f_1666_8650" x="14.1484" y="109" width="76.6929" height="31.1572" filterUnits="userSpaceOnUse" color-interpolation-filters="sRGB">
<feFlood flood-opacity="0" result="BackgroundImageFix"/>
<feBlend mode="normal" in="SourceGraphic" in2="BackgroundImageFix" result="shape"/>
<feGaussianBlur stdDeviation="4.5" result="effect1_foregroundBlur_1666_8650"/>
</filter>
<filter id="filter1_f_1666_8650" x="117" y="105.5" width="83.5" height="44.5" filterUnits="userSpaceOnUse" color-interpolation-filters="sRGB">
<feFlood flood-opacity="0" result="BackgroundImageFix"/>
<feBlend mode="normal" in="SourceGraphic" in2="BackgroundImageFix" result="shape"/>
<feGaussianBlur stdDeviation="4.5" result="effect1_foregroundBlur_1666_8650"/>
</filter>
<filter id="filter2_f_1666_8650" x="0" y="104" width="157" height="43.5" filterUnits="userSpaceOnUse" color-interpolation-filters="sRGB">
<feFlood flood-opacity="0" result="BackgroundImageFix"/>
<feBlend mode="normal" in="SourceGraphic" in2="BackgroundImageFix" result="shape"/>
<feGaussianBlur stdDeviation="4.5" result="effect1_foregroundBlur_1666_8650"/>
</filter>
<filter id="filter3_f_1666_8650" x="98" y="94" width="157.5" height="45" filterUnits="userSpaceOnUse" color-interpolation-filters="sRGB">
<feFlood flood-opacity="0" result="BackgroundImageFix"/>
<feBlend mode="normal" in="SourceGraphic" in2="BackgroundImageFix" result="shape"/>
<feGaussianBlur stdDeviation="4.5" result="effect1_foregroundBlur_1666_8650"/>
</filter>
<filter id="filter4_d_1666_8650" x="201.018" y="28.3899" width="30.6463" height="27.8479" filterUnits="userSpaceOnUse" color-interpolation-filters="sRGB">
<feFlood flood-opacity="0" result="BackgroundImageFix"/>
<feColorMatrix in="SourceAlpha" type="matrix" values="0 0 0 0 0 0 0 0 0 0 0 0 0 0 0 0 0 0 127 0" result="hardAlpha"/>
<feOffset dy="0.679054"/>
<feGaussianBlur stdDeviation="0.452703"/>
<feComposite in2="hardAlpha" operator="out"/>
<feColorMatrix type="matrix" values="0 0 0 0 0 0 0 0 0 0 0 0 0 0 0 0 0 0 0.25 0"/>
<feBlend mode="normal" in2="BackgroundImageFix" result="effect1_dropShadow_1666_8650"/>
<feBlend mode="normal" in="SourceGraphic" in2="effect1_dropShadow_1666_8650" result="shape"/>
</filter>
<radialGradient id="paint0_radial_1666_8650" cx="0" cy="0" r="1" gradientUnits="userSpaceOnUse" gradientTransform="translate(178.166 97.7082) rotate(90) scale(19.3147 19.9807)">
<stop stop-color="#BBC2B7"/>
<stop offset="1" stop-color="#595C57"/>
</radialGradient>
<radialGradient id="paint1_radial_1666_8650" cx="0" cy="0" r="1" gradientUnits="userSpaceOnUse" gradientTransform="translate(235.5 87) rotate(90) scale(14 5.5)">
<stop/>
<stop offset="1" stop-color="#666666"/>
</radialGradient>
<linearGradient id="paint2_linear_1666_8650" x1="203.244" y1="51.7503" x2="227.222" y2="28.6056" gradientUnits="userSpaceOnUse">
<stop offset="0.315" stop-color="#F1EDED"/>
<stop offset="0.52" stop-color="#AAA7A7"/>
<stop offset="0.695" stop-color="white"/>
</linearGradient>
<linearGradient id="paint3_linear_1666_8650" x1="203.244" y1="51.7503" x2="227.222" y2="28.6056" gradientUnits="userSpaceOnUse">
<stop offset="0.315" stop-color="#F1EDED"/>
<stop offset="0.52" stop-color="#AAA7A7"/>
<stop offset="0.695" stop-color="white"/>
</linearGradient>
<linearGradient id="paint4_linear_1666_8650" x1="203.244" y1="51.7503" x2="227.222" y2="28.6056" gradientUnits="userSpaceOnUse">
<stop offset="0.315" stop-color="#F1EDED"/>
<stop offset="0.52" stop-color="#AAA7A7"/>
<stop offset="0.695" stop-color="white"/>
</linearGradient>
<linearGradient id="paint5_linear_1666_8650" x1="203.244" y1="51.7503" x2="227.222" y2="28.6056" gradientUnits="userSpaceOnUse">
<stop offset="0.315" stop-color="#F1EDED"/>
<stop offset="0.52" stop-color="#AAA7A7"/>
<stop offset="0.695" stop-color="white"/>
</linearGradient>
<linearGradient id="paint6_linear_1666_8650" x1="203.244" y1="51.7503" x2="227.222" y2="28.6056" gradientUnits="userSpaceOnUse">
<stop offset="0.315" stop-color="#F1EDED"/>
<stop offset="0.52" stop-color="#AAA7A7"/>
<stop offset="0.695" stop-color="white"/>
</linearGradient>
<linearGradient id="paint7_linear_1666_8650" x1="203.244" y1="51.7503" x2="227.222" y2="28.6056" gradientUnits="userSpaceOnUse">
<stop offset="0.315" stop-color="#F1EDED"/>
<stop offset="0.52" stop-color="#AAA7A7"/>
<stop offset="0.695" stop-color="white"/>
</linearGradient>
<linearGradient id="paint8_linear_1666_8650" x1="203.244" y1="51.7503" x2="227.222" y2="28.6056" gradientUnits="userSpaceOnUse">
<stop offset="0.315" stop-color="#F1EDED"/>
<stop offset="0.52" stop-color="#AAA7A7"/>
<stop offset="0.695" stop-color="white"/>
</linearGradient>
<linearGradient id="paint9_linear_1666_8650" x1="203.244" y1="51.7503" x2="227.222" y2="28.6056" gradientUnits="userSpaceOnUse">
<stop offset="0.315" stop-color="#F1EDED"/>
<stop offset="0.52" stop-color="#AAA7A7"/>
<stop offset="0.695" stop-color="white"/>
</linearGradient>
<linearGradient id="paint10_linear_1666_8650" x1="203.244" y1="51.7503" x2="227.222" y2="28.6056" gradientUnits="userSpaceOnUse">
<stop offset="0.315" stop-color="#F1EDED"/>
<stop offset="0.52" stop-color="#AAA7A7"/>
<stop offset="0.695" stop-color="white"/>
</linearGradient>
</defs>
</svg>
