<svg width="26" height="20" viewBox="0 0 26 20" fill="none" xmlns="http://www.w3.org/2000/svg">
<path fill-rule="evenodd" clip-rule="evenodd" d="M0.949707 2.90051C0.949707 1.29968 2.24743 0.00195312 3.84826 0.00195312H17.9037C19.5045 0.00195312 20.8022 1.29968 20.8022 2.9005V9.92948C20.7701 9.92896 20.738 9.92869 20.7057 9.92869C17.5041 9.92869 14.9086 12.5241 14.9086 15.7258C14.9086 16.4127 15.0281 17.0717 15.2474 17.6831H3.84826C2.24743 17.6831 0.949707 16.3854 0.949707 14.7846V2.90051ZM4.71508 2.32C3.99471 2.32 3.41073 2.90397 3.41073 3.62434C3.41073 4.34472 3.99471 4.92869 4.71508 4.92869H17.1788C17.8992 4.92869 18.4832 4.34472 18.4832 3.62434C18.4832 2.90397 17.8992 2.32 17.1788 2.32H4.71508Z" fill="#D9D9D9"/>
<path d="M15.8324 12.6094C14.425 14.7833 14.9564 16.9089 15.2946 17.6818H3.70037C0.569937 17.7978 0.946844 15.5079 0.946784 12.6094H15.8324Z" fill="#8B8B8B"/>
<path d="M25.1493 15.6525C25.1493 18.0538 23.2027 20.0003 20.8014 20.0003C18.4002 20.0003 16.4536 18.0538 16.4536 15.6525C16.4536 13.2513 18.4002 11.3047 20.8014 11.3047C23.2027 11.3047 25.1493 13.2513 25.1493 15.6525Z" fill="#D9D9D9"/>
<path fill-rule="evenodd" clip-rule="evenodd" d="M23.6887 13.6379C23.8887 13.8284 23.8964 14.1449 23.7059 14.3448L20.8074 17.3883L20.5054 17.7054L20.1512 17.4478L18.557 16.2884C18.3337 16.126 18.2843 15.8133 18.4467 15.59C18.6092 15.3666 18.9219 15.3173 19.1452 15.4797L20.3852 16.3815L22.9818 13.6552C23.1722 13.4552 23.4887 13.4475 23.6887 13.6379Z" fill="black"/>
<path d="M7.17821 15.2172C7.17821 15.2972 6.14003 15.3621 4.85937 15.3621C3.57871 15.3621 2.54053 15.507 2.54053 15.2172C2.54053 15.1372 3.57871 15.0723 4.85937 15.0723C6.14003 15.0723 7.17821 15.1372 7.17821 15.2172Z" fill="url(#paint0_linear_441_1307)"/>
<path d="M8.04784 14.6744C8.04784 14.5944 7.00966 14.5295 5.729 14.5295C4.44834 14.5295 3.41016 14.3846 3.41016 14.6744C3.41016 14.7544 4.44834 14.8193 5.729 14.8193C7.00966 14.8193 8.04784 14.7544 8.04784 14.6744Z" fill="url(#paint1_linear_441_1307)"/>
<path d="M8.62794 14.6381C8.62794 14.7181 9.66612 14.783 10.9468 14.783C12.2274 14.783 13.2656 14.9279 13.2656 14.6381C13.2656 14.5581 12.2274 14.4932 10.9468 14.4932C9.66612 14.4932 8.62794 14.5581 8.62794 14.6381Z" fill="url(#paint2_linear_441_1307)"/>
<path d="M8.91749 15.2172C8.91749 15.2972 9.95567 15.3621 11.2363 15.3621C12.517 15.3621 13.5552 15.507 13.5552 15.2172C13.5552 15.1372 12.517 15.0723 11.2363 15.0723C9.95567 15.0723 8.91749 15.1372 8.91749 15.2172Z" fill="url(#paint3_linear_441_1307)"/>
<path fill-rule="evenodd" clip-rule="evenodd" d="M2.62129 10.4237C2.42445 10.7048 2.20201 11.0225 2.20201 11.7405C2.20201 11.9914 2.18463 12.2944 2.16612 12.617C2.09558 13.8469 2.00868 15.362 2.8056 15.362C3.81159 15.362 4.01288 15.362 4.21407 14.5572H7.99689V14.5573H11.8196C12.0208 15.3621 12.2221 15.3621 13.2281 15.3621C14.025 15.3621 13.9381 13.847 13.8676 12.6171C13.8491 12.2945 13.8317 11.9914 13.8317 11.7406C13.8317 11.0225 13.6093 10.7049 13.4124 10.4237C13.3445 10.3268 13.2797 10.2341 13.228 10.1309C13.3287 10.0303 13.4795 9.98002 13.6304 9.92972C13.7813 9.87942 13.9322 9.82912 14.0328 9.72852C14.234 9.52732 13.6304 9.32612 13.228 9.32612C12.9061 9.32612 12.8257 9.79558 12.8257 9.92972C12.8075 9.8933 12.7754 9.81434 12.7287 9.6993C12.6034 9.39072 12.3726 8.82248 12.0208 8.119C11.5408 7.15894 9.16523 7.1798 8.01717 7.31185C6.86935 7.17973 4.49299 7.15869 4.01288 8.11893C3.66113 8.82242 3.43034 9.39065 3.30501 9.69923C3.25829 9.81427 3.22622 9.89322 3.20801 9.92964C3.20801 9.79551 3.12761 9.32605 2.80569 9.32605C2.4033 9.32605 1.7997 9.52725 2.0009 9.72845C2.1015 9.82905 2.25239 9.87935 2.40329 9.92965C2.55417 9.97995 2.70506 10.0302 2.80569 10.1308C2.75406 10.2341 2.6892 10.3267 2.62129 10.4237Z" fill="#030218"/>
<path d="M4.21456 11.338L3.00738 10.7344C2.68546 10.5735 2.60498 10.9356 2.60498 11.1368C2.60498 11.7404 3.00738 11.9416 4.01336 11.9416C4.81815 11.9416 4.48282 11.5392 4.21456 11.338Z" fill="#F1EDED" stroke="black" stroke-width="0.201197" stroke-linecap="round"/>
<path d="M11.8196 11.338L13.0268 10.7344C13.3487 10.5735 13.4292 10.9356 13.4292 11.1368C13.4292 11.7404 13.0268 11.9416 12.0208 11.9416C11.216 11.9416 11.5514 11.5392 11.8196 11.338Z" fill="#F1EDED" stroke="black" stroke-width="0.201197" stroke-linecap="round"/>
<path fill-rule="evenodd" clip-rule="evenodd" d="M7.97668 12.9473H4.64484C4.50427 12.9473 4.26532 13.0384 4.43399 13.4029C4.64484 13.8586 5.06658 14.0865 5.27743 14.0865L7.97663 14.0865H10.7176C10.9285 14.0865 11.3502 13.8586 11.5611 13.4029C11.7297 13.0384 11.4908 12.9473 11.3502 12.9473H8.01838H7.97668Z" fill="#F1EDED"/>
<path d="M4.43399 13.4029L4.45225 13.3945L4.43399 13.4029ZM5.27743 14.0865V14.0663V14.0865ZM7.97663 14.0865V14.1066V14.0865ZM11.5611 13.4029L11.5793 13.4114V13.4114L11.5611 13.4029ZM4.64484 12.9674H7.97668V12.9271H4.64484V12.9674ZM4.45225 13.3945C4.36953 13.2157 4.38973 13.1111 4.43899 13.0512C4.48978 12.9894 4.57746 12.9674 4.64484 12.9674V12.9271C4.57165 12.9271 4.46957 12.9507 4.40791 13.0256C4.34472 13.1024 4.32978 13.2256 4.41573 13.4114L4.45225 13.3945ZM5.27743 14.0663C5.17781 14.0663 5.02375 14.0118 4.86747 13.8993C4.71182 13.7871 4.55607 13.6189 4.45225 13.3945L4.41573 13.4114C4.52276 13.6427 4.68331 13.8162 4.84395 13.9319C5.00396 14.0472 5.1662 14.1066 5.27743 14.1066V14.0663ZM7.97663 14.0663L5.27743 14.0663V14.1066L7.97663 14.1066V14.0663ZM7.97663 14.1066H10.7176V14.0663H7.97663V14.1066ZM10.7176 14.1066C10.8289 14.1066 10.9911 14.0472 11.1511 13.9319C11.3118 13.8162 11.4723 13.6427 11.5793 13.4114L11.5428 13.3945C11.439 13.6189 11.2832 13.7871 11.1276 13.8993C10.9713 14.0118 10.8173 14.0663 10.7176 14.0663V14.1066ZM11.5793 13.4114C11.6653 13.2256 11.6503 13.1024 11.5871 13.0256C11.5255 12.9507 11.4234 12.9271 11.3502 12.9271V12.9674C11.4176 12.9674 11.5053 12.9894 11.5561 13.0512C11.6053 13.1111 11.6255 13.2157 11.5428 13.3945L11.5793 13.4114ZM11.3502 12.9271H8.01838V12.9674H11.3502V12.9271ZM8.01838 12.9271H7.97668V12.9674H8.01838V12.9271Z" fill="black"/>
<path fill-rule="evenodd" clip-rule="evenodd" d="M7.99771 7.91797H5.62304C5.35478 7.91797 4.77801 7.99845 4.61705 8.32036C4.57939 8.39569 4.52058 8.49921 4.4525 8.61905C4.15687 9.13944 3.68639 9.9676 4.01346 10.1311H7.99762H8.0375H12.0217C12.3487 9.9676 11.8783 9.13944 11.5826 8.61905C11.5145 8.49921 11.4557 8.39569 11.4181 8.32036C11.2571 7.99845 10.6803 7.91797 10.4121 7.91797H8.03741H7.99771Z" fill="#F1EDED"/>
<path d="M4.61705 8.32036L4.70703 8.36535L4.61705 8.32036ZM4.4525 8.61905L4.53997 8.66874L4.53997 8.66874L4.4525 8.61905ZM4.01346 10.1311L3.96847 10.2211L3.98971 10.2317H4.01346V10.1311ZM12.0217 10.1311V10.2317H12.0454L12.0666 10.2211L12.0217 10.1311ZM11.5826 8.61905L11.4951 8.66874V8.66874L11.5826 8.61905ZM11.4181 8.32036L11.3281 8.36535V8.36535L11.4181 8.32036ZM5.62304 8.01857H7.99771V7.81737H5.62304V8.01857ZM4.70703 8.36535C4.76831 8.2428 4.91806 8.15297 5.10916 8.09467C5.29559 8.03779 5.49665 8.01857 5.62304 8.01857V7.81737C5.48117 7.81737 5.25972 7.83838 5.05045 7.90223C4.84587 7.96464 4.62676 8.07601 4.52708 8.27537L4.70703 8.36535ZM4.53997 8.66874C4.60746 8.54993 4.66789 8.44364 4.70703 8.36535L4.52708 8.27537C4.4909 8.34773 4.4337 8.44848 4.36503 8.56936L4.53997 8.66874ZM4.05845 10.0412C4.02637 10.0251 4.00082 9.99116 4.00307 9.90159C4.00536 9.8105 4.03762 9.68846 4.09323 9.54536C4.20373 9.26103 4.39118 8.93064 4.53997 8.66874L4.36503 8.56936C4.21818 8.82785 4.02258 9.17174 3.9057 9.47247C3.84763 9.62191 3.80511 9.77009 3.80194 9.89654C3.79872 10.0245 3.83702 10.1554 3.96847 10.2211L4.05845 10.0412ZM7.99762 10.0305H4.01346V10.2317H7.99762V10.0305ZM7.99762 10.2317H8.0375V10.0305H7.99762V10.2317ZM8.0375 10.2317H12.0217V10.0305H8.0375V10.2317ZM12.0666 10.2211C12.1981 10.1554 12.2364 10.0245 12.2332 9.89654C12.23 9.77009 12.1875 9.6219 12.1294 9.47247C12.0125 9.17174 11.8169 8.82785 11.6701 8.56936L11.4951 8.66874C11.6439 8.93064 11.8314 9.26103 11.9419 9.54536C11.9975 9.68846 12.0298 9.8105 12.032 9.90159C12.0343 9.99116 12.0088 10.0251 11.9767 10.0412L12.0666 10.2211ZM11.6701 8.56936C11.6014 8.44848 11.5442 8.34773 11.508 8.27537L11.3281 8.36535C11.3672 8.44364 11.4277 8.54993 11.4951 8.66874L11.6701 8.56936ZM11.508 8.27537C11.4084 8.07601 11.1893 7.96464 10.9847 7.90223C10.7754 7.83838 10.5539 7.81737 10.4121 7.81737V8.01857C10.5385 8.01857 10.7395 8.03779 10.926 8.09467C11.1171 8.15297 11.2668 8.2428 11.3281 8.36535L11.508 8.27537ZM10.4121 7.81737H8.03741V8.01857H10.4121V7.81737ZM8.03741 7.81737H7.99771V8.01857H8.03741V7.81737Z" fill="black"/>
<path fill-rule="evenodd" clip-rule="evenodd" d="M7.99666 11.7402H4.81738V12.1426C5.7386 12.34 7.64112 12.6924 8.0166 12.5536C8.39208 12.6924 10.2946 12.34 11.2158 12.1426V11.7402H8.03654H7.99666Z" fill="#F1EDED"/>
<path d="M4.81738 11.7402V11.7201H4.79726V11.7402H4.81738ZM4.81738 12.1426H4.79726V12.1589L4.81317 12.1623L4.81738 12.1426ZM8.0166 12.5536L8.02578 12.5287L8.00962 12.5347L8.0166 12.5536ZM11.2158 12.1426L11.22 12.1623L11.2359 12.1589V12.1426H11.2158ZM11.2158 11.7402H11.2359V11.7201H11.2158V11.7402ZM4.81738 11.7604H7.99666V11.7201H4.81738V11.7604ZM4.8375 12.1426V11.7402H4.79726V12.1426H4.8375ZM8.00962 12.5347C7.96581 12.5509 7.89766 12.5605 7.80838 12.5638C7.71958 12.567 7.61162 12.5639 7.48922 12.5556C7.24444 12.5391 6.94324 12.502 6.62462 12.4543C5.98744 12.3589 5.28193 12.2216 4.8216 12.123L4.81317 12.1623C5.27405 12.2611 5.98041 12.3986 6.61866 12.4941C6.93776 12.5418 7.24017 12.5791 7.4865 12.5958C7.60966 12.6041 7.71913 12.6073 7.80984 12.604C7.90007 12.6007 7.97352 12.591 8.02358 12.5724L8.00962 12.5347ZM8.00962 12.5724C8.05968 12.591 8.13313 12.6007 8.22335 12.604C8.31407 12.6073 8.42354 12.6041 8.54669 12.5958C8.79303 12.5791 9.09544 12.5418 9.41454 12.4941C10.0528 12.3986 10.7592 12.2611 11.22 12.1623L11.2116 12.123C10.7513 12.2216 10.0458 12.3589 9.40858 12.4543C9.08995 12.502 8.78876 12.5391 8.54398 12.5556C8.42158 12.5639 8.31362 12.567 8.22482 12.5638C8.13553 12.5605 8.06739 12.5509 8.02358 12.5347L8.00962 12.5724ZM11.2359 12.1426V11.7402H11.1957V12.1426H11.2359ZM11.2158 11.7201H8.03654V11.7604H11.2158V11.7201ZM8.03654 11.7201H7.99666V11.7604H8.03654V11.7201Z" fill="black"/>
<ellipse cx="3.61089" cy="13.1495" rx="0.402395" ry="0.402395" fill="#F1EDED"/>
<ellipse cx="0.402395" cy="0.402395" rx="0.402395" ry="0.402395" transform="matrix(-1 0 0 1 12.8257 12.7471)" fill="#F1EDED"/>
<path d="M10.4113 8.05078H9.2041L10.2101 10.0628H11.2161L10.4113 8.05078Z" fill="#030218" stroke="black" stroke-width="0.201197" stroke-linecap="round"/>
<path d="M8.60066 8.05078H7.99707L9.00306 10.0628H9.40545L8.60066 8.05078Z" fill="#030218" stroke="black" stroke-width="0.201197" stroke-linecap="round"/>
<path fill-rule="evenodd" clip-rule="evenodd" d="M2.51143 10.1776C2.31459 10.4587 2.09215 10.7764 2.09215 11.4944C2.09215 11.7453 2.07477 12.0483 2.05626 12.3709C1.98572 13.6008 1.89882 15.1159 2.69574 15.1159C3.70173 15.1159 3.90301 15.1159 4.10421 14.3112H7.88703V14.3112H11.7098C11.911 15.116 12.1123 15.116 13.1183 15.116C13.9152 15.116 13.8283 13.6009 13.7577 12.371C13.7392 12.0484 13.7218 11.7453 13.7218 11.4945C13.7218 10.7764 13.4994 10.4588 13.3026 10.1777C13.2347 10.0807 13.1698 9.98804 13.1182 9.88482C13.2188 9.78423 13.3697 9.73393 13.5206 9.68363C13.6715 9.63333 13.8223 9.58303 13.923 9.48242C14.1241 9.28123 13.5206 9.08003 13.1182 9.08003C12.7962 9.08003 12.7158 9.54949 12.7158 9.68362C12.6976 9.6472 12.6656 9.56825 12.6188 9.45321C12.4935 9.14463 12.2627 8.57639 11.911 7.87291C11.4309 6.91285 9.05537 6.9337 7.90731 7.06576C6.75949 6.93364 4.38313 6.9126 3.90301 7.87283C3.55127 8.57632 3.32048 9.14456 3.19515 9.45314C3.14842 9.56818 3.11636 9.64713 3.09814 9.68355C3.09814 9.54942 3.01774 9.07996 2.69583 9.07996C2.29343 9.07996 1.68984 9.28115 1.89104 9.48235C1.99164 9.58296 2.14253 9.63326 2.29343 9.68356C2.44431 9.73385 2.5952 9.78415 2.69583 9.88475C2.6442 9.98796 2.57934 10.0806 2.51143 10.1776Z" fill="#030218"/>
<path d="M4.1047 11.0919L2.89751 10.4884C2.5756 10.3274 2.49512 10.6896 2.49512 10.8907C2.49512 11.4943 2.89751 11.6955 3.9035 11.6955C4.70829 11.6955 4.37296 11.2931 4.1047 11.0919Z" fill="#F1EDED" stroke="black" stroke-width="0.201197" stroke-linecap="round"/>
<path d="M11.7098 11.0919L12.9169 10.4884C13.2389 10.3274 13.3193 10.6896 13.3193 10.8907C13.3193 11.4943 12.9169 11.6955 11.911 11.6955C11.1062 11.6955 11.4415 11.2931 11.7098 11.0919Z" fill="#F1EDED" stroke="black" stroke-width="0.201197" stroke-linecap="round"/>
<path fill-rule="evenodd" clip-rule="evenodd" d="M7.86682 12.7012H4.53498C4.39441 12.7012 4.15545 12.7923 4.32413 13.1569C4.53498 13.6125 4.95672 13.8404 5.16756 13.8404L7.86677 13.8404H10.6078C10.8186 13.8404 11.2404 13.6125 11.4512 13.1569C11.6199 12.7923 11.3809 12.7012 11.2404 12.7012H7.90852H7.86682Z" fill="#F1EDED"/>
<path d="M4.32413 13.1569L4.34239 13.1484L4.32413 13.1569ZM5.16756 13.8404V13.8203V13.8404ZM7.86677 13.8404V13.8605V13.8404ZM11.4512 13.1569L11.4695 13.1653V13.1653L11.4512 13.1569ZM4.53498 12.7213H7.86682V12.6811H4.53498V12.7213ZM4.34239 13.1484C4.25966 12.9696 4.27987 12.865 4.32912 12.8051C4.37991 12.7433 4.46759 12.7213 4.53498 12.7213V12.6811C4.46179 12.6811 4.35971 12.7046 4.29805 12.7795C4.23485 12.8564 4.21992 12.9795 4.30587 13.1653L4.34239 13.1484ZM5.16756 13.8203C5.06795 13.8203 4.91389 13.7657 4.75761 13.6532C4.60195 13.541 4.4462 13.3728 4.34239 13.1484L4.30587 13.1653C4.4129 13.3966 4.57344 13.5701 4.73409 13.6858C4.8941 13.8011 5.05634 13.8605 5.16756 13.8605V13.8203ZM7.86677 13.8203L5.16756 13.8203V13.8605L7.86677 13.8605V13.8203ZM7.86677 13.8605H10.6078V13.8203H7.86677V13.8605ZM10.6078 13.8605C10.719 13.8605 10.8812 13.8011 11.0412 13.6858C11.2019 13.5701 11.3624 13.3966 11.4695 13.1653L11.4329 13.1484C11.3291 13.3728 11.1734 13.541 11.0177 13.6532C10.8614 13.7657 10.7074 13.8203 10.6078 13.8203V13.8605ZM11.4695 13.1653C11.5554 12.9795 11.5405 12.8564 11.4773 12.7795C11.4156 12.7046 11.3135 12.6811 11.2404 12.6811V12.7213C11.3077 12.7213 11.3954 12.7433 11.4462 12.8051C11.4955 12.865 11.5157 12.9696 11.4329 13.1484L11.4695 13.1653ZM11.2404 12.6811H7.90852V12.7213H11.2404V12.6811ZM7.90852 12.6811H7.86682V12.7213H7.90852V12.6811Z" fill="black"/>
<path fill-rule="evenodd" clip-rule="evenodd" d="M7.88784 7.67188H5.51318C5.24492 7.67188 4.66815 7.75235 4.50719 8.07427C4.46953 8.14959 4.41072 8.25311 4.34264 8.37295C4.047 8.89335 3.57653 9.72151 3.9036 9.88505H7.88775H7.92764H11.9118C12.2389 9.72151 11.7684 8.89335 11.4728 8.37295C11.4047 8.25311 11.3459 8.14959 11.3082 8.07427C11.1472 7.75235 10.5705 7.67188 10.3022 7.67188H7.92755H7.88784Z" fill="#F1EDED"/>
<path d="M4.50719 8.07427L4.59717 8.11926L4.50719 8.07427ZM4.34264 8.37295L4.43011 8.42265L4.43011 8.42265L4.34264 8.37295ZM3.9036 9.88505L3.85861 9.97503L3.87985 9.98565H3.9036V9.88505ZM11.9118 9.88505V9.98565H11.9355L11.9568 9.97503L11.9118 9.88505ZM11.4728 8.37295L11.3853 8.42265V8.42265L11.4728 8.37295ZM11.3082 8.07427L11.2182 8.11926V8.11926L11.3082 8.07427ZM5.51318 7.77247H7.88784V7.57128H5.51318V7.77247ZM4.59717 8.11926C4.65844 7.99671 4.8082 7.90688 4.9993 7.84857C5.18572 7.7917 5.38678 7.77247 5.51318 7.77247V7.57128C5.37131 7.57128 5.14986 7.59229 4.94059 7.65613C4.736 7.71855 4.5169 7.82991 4.41721 8.02928L4.59717 8.11926ZM4.43011 8.42265C4.4976 8.30384 4.55803 8.19755 4.59717 8.11926L4.41721 8.02928C4.38103 8.10164 4.32384 8.20238 4.25517 8.32326L4.43011 8.42265ZM3.94859 9.79507C3.9165 9.77903 3.89096 9.74507 3.89321 9.6555C3.8955 9.56441 3.92775 9.44237 3.98337 9.29926C4.09387 9.01494 4.28132 8.68455 4.43011 8.42265L4.25517 8.32326C4.10832 8.58176 3.91272 8.92564 3.79584 9.22638C3.73776 9.37581 3.69525 9.52399 3.69207 9.65045C3.68886 9.77841 3.72716 9.9093 3.85861 9.97503L3.94859 9.79507ZM7.88775 9.78445H3.9036V9.98565H7.88775V9.78445ZM7.88775 9.98565H7.92764V9.78445H7.88775V9.98565ZM7.92764 9.98565H11.9118V9.78445H7.92764V9.98565ZM11.9568 9.97503C12.0882 9.9093 12.1265 9.77841 12.1233 9.65044C12.1201 9.52399 12.0776 9.37581 12.0196 9.22638C11.9027 8.92564 11.7071 8.58175 11.5602 8.32326L11.3853 8.42265C11.5341 8.68455 11.7215 9.01494 11.832 9.29926C11.8876 9.44237 11.9199 9.56441 11.9222 9.6555C11.9244 9.74507 11.8989 9.77903 11.8668 9.79507L11.9568 9.97503ZM11.5602 8.32326C11.4916 8.20238 11.4344 8.10164 11.3982 8.02928L11.2182 8.11926C11.2574 8.19755 11.3178 8.30384 11.3853 8.42265L11.5602 8.32326ZM11.3982 8.02928C11.2985 7.82991 11.0794 7.71855 10.8748 7.65613C10.6655 7.59229 10.4441 7.57128 10.3022 7.57128V7.77247C10.4286 7.77247 10.6297 7.7917 10.8161 7.84857C11.0072 7.90688 11.1569 7.99671 11.2182 8.11926L11.3982 8.02928ZM10.3022 7.57128H7.92755V7.77247H10.3022V7.57128ZM7.92755 7.57128H7.88784V7.77247H7.92755V7.57128Z" fill="black"/>
<path fill-rule="evenodd" clip-rule="evenodd" d="M7.88679 11.4941H4.70752V11.8965C5.62873 12.0939 7.53126 12.4463 7.90674 12.3075C8.28222 12.4463 10.1847 12.0939 11.106 11.8965V11.4941H7.92668H7.88679Z" fill="#F1EDED"/>
<path d="M4.70752 11.4941V11.474H4.6874V11.4941H4.70752ZM4.70752 11.8965H4.6874V11.9128L4.7033 11.9162L4.70752 11.8965ZM7.90674 12.3075L7.91592 12.2826L7.89976 12.2886L7.90674 12.3075ZM11.106 11.8965L11.1102 11.9162L11.1261 11.9128V11.8965H11.106ZM11.106 11.4941H11.1261V11.474H11.106V11.4941ZM4.70752 11.5143H7.88679V11.474H4.70752V11.5143ZM4.72764 11.8965V11.4941H4.6874V11.8965H4.72764ZM7.89976 12.2886C7.85595 12.3048 7.7878 12.3144 7.69852 12.3177C7.60972 12.3209 7.50176 12.3178 7.37936 12.3095C7.13458 12.293 6.83338 12.2559 6.51475 12.2082C5.87757 12.1129 5.17207 11.9755 4.71174 11.8769L4.7033 11.9162C5.16418 12.015 5.87055 12.1525 6.5088 12.248C6.82789 12.2957 7.1303 12.333 7.37664 12.3497C7.4998 12.358 7.60927 12.3612 7.69998 12.3579C7.79021 12.3546 7.86365 12.3449 7.91371 12.3264L7.89976 12.2886ZM7.89976 12.3264C7.94982 12.3449 8.02326 12.3546 8.11349 12.3579C8.2042 12.3612 8.31368 12.358 8.43683 12.3497C8.68317 12.333 8.98558 12.2957 9.30467 12.248C9.94292 12.1525 10.6493 12.015 11.1102 11.9162L11.1017 11.8769C10.6414 11.9755 9.9359 12.1129 9.29872 12.2082C8.98009 12.2559 8.67889 12.293 8.43412 12.3095C8.31171 12.3178 8.20375 12.3209 8.11495 12.3177C8.02567 12.3144 7.95752 12.3048 7.91371 12.2886L7.89976 12.3264ZM11.1261 11.8965V11.4941H11.0858V11.8965H11.1261ZM11.106 11.474H7.92668V11.5143H11.106V11.474ZM7.92668 11.474H7.88679V11.5143H7.92668V11.474Z" fill="black"/>
<ellipse cx="3.50103" cy="12.9034" rx="0.402395" ry="0.402395" fill="#F1EDED"/>
<ellipse cx="0.402395" cy="0.402395" rx="0.402395" ry="0.402395" transform="matrix(-1 0 0 1 12.7158 12.501)" fill="#F1EDED"/>
<path d="M10.3014 7.80469H9.09424L10.1002 9.81666H11.1062L10.3014 7.80469Z" fill="#030218" stroke="black" stroke-width="0.201197" stroke-linecap="round"/>
<path d="M8.4908 7.80469H7.88721L8.89319 9.81666H9.29559L8.4908 7.80469Z" fill="#030218" stroke="black" stroke-width="0.201197" stroke-linecap="round"/>
<defs>
<linearGradient id="paint0_linear_441_1307" x1="2.54053" y1="15.2172" x2="7.17821" y2="15.2172" gradientUnits="userSpaceOnUse">
<stop/>
<stop offset="1" stop-color="#8B8B8B" stop-opacity="0"/>
</linearGradient>
<linearGradient id="paint1_linear_441_1307" x1="3.41016" y1="14.6744" x2="8.04784" y2="14.6744" gradientUnits="userSpaceOnUse">
<stop/>
<stop offset="1" stop-color="#8B8B8B" stop-opacity="0"/>
</linearGradient>
<linearGradient id="paint2_linear_441_1307" x1="13.2656" y1="14.6381" x2="8.62794" y2="14.6381" gradientUnits="userSpaceOnUse">
<stop/>
<stop offset="1" stop-color="#8B8B8B" stop-opacity="0"/>
</linearGradient>
<linearGradient id="paint3_linear_441_1307" x1="13.5552" y1="15.2172" x2="8.91749" y2="15.2172" gradientUnits="userSpaceOnUse">
<stop/>
<stop offset="1" stop-color="#8B8B8B" stop-opacity="0"/>
</linearGradient>
</defs>
</svg>
