<svg width="26" height="20" viewBox="0 0 26 20" fill="none" xmlns="http://www.w3.org/2000/svg">
<path d="M0 0H26V20H0V0ZM13 5C14.1493 5 15.2515 5.52678 16.0641 6.46447C16.8768 7.40215 17.3333 8.67392 17.3333 10C17.3333 11.3261 16.8768 12.5979 16.0641 13.5355C15.2515 14.4732 14.1493 15 13 15C11.8507 15 10.7485 14.4732 9.93587 13.5355C9.12321 12.5979 8.66667 11.3261 8.66667 10C8.66667 8.67392 9.12321 7.40215 9.93587 6.46447C10.7485 5.52678 11.8507 5 13 5ZM5.77778 3.33333C5.77778 4.21739 5.47341 5.06523 4.93164 5.69036C4.38987 6.31548 3.65507 6.66667 2.88889 6.66667V13.3333C3.65507 13.3333 4.38987 13.6845 4.93164 14.3096C5.47341 14.9348 5.77778 15.7826 5.77778 16.6667H20.2222C20.2222 15.7826 20.5266 14.9348 21.0684 14.3096C21.6101 13.6845 22.3449 13.3333 23.1111 13.3333V6.66667C22.3449 6.66667 21.6101 6.31548 21.0684 5.69036C20.5266 5.06523 20.2222 4.21739 20.2222 3.33333H5.77778Z" fill="black"/>
</svg>
