<svg width="20" height="21" viewBox="0 0 20 21" fill="none" xmlns="http://www.w3.org/2000/svg">
<g opacity="0.8">
<path d="M3.4375 18C2.85734 18 2.30094 17.7695 1.8907 17.3593C1.48047 16.9491 1.25 16.3927 1.25 15.8125V12.6875C1.25 12.4389 1.34877 12.2004 1.52459 12.0246C1.7004 11.8488 1.93886 11.75 2.1875 11.75C2.43614 11.75 2.6746 11.8488 2.85041 12.0246C3.02623 12.2004 3.125 12.4389 3.125 12.6875V15.8125C3.125 15.985 3.265 16.125 3.4375 16.125H16.5625C16.6454 16.125 16.7249 16.0921 16.7835 16.0335C16.8421 15.9749 16.875 15.8954 16.875 15.8125V12.6875C16.875 12.4389 16.9738 12.2004 17.1496 12.0246C17.3254 11.8488 17.5639 11.75 17.8125 11.75C18.0611 11.75 18.2996 11.8488 18.4754 12.0246C18.6512 12.2004 18.75 12.4389 18.75 12.6875V15.8125C18.75 16.3927 18.5195 16.9491 18.1093 17.3593C17.6991 17.7695 17.1427 18 16.5625 18H3.4375Z" fill="black"/>
<path d="M9.0624 10.1112V3C9.0624 2.75136 9.16118 2.5129 9.33699 2.33709C9.51281 2.16127 9.75126 2.0625 9.9999 2.0625C10.2485 2.0625 10.487 2.16127 10.6628 2.33709C10.8386 2.5129 10.9374 2.75136 10.9374 3V10.1112L13.3999 7.65C13.4869 7.563 13.5902 7.49399 13.7039 7.4469C13.8175 7.39982 13.9394 7.37558 14.0624 7.37558C14.1854 7.37558 14.3073 7.39982 14.4209 7.4469C14.5346 7.49399 14.6379 7.563 14.7249 7.65C14.8119 7.737 14.8809 7.84029 14.928 7.95396C14.9751 8.06763 14.9993 8.18946 14.9993 8.3125C14.9993 8.43554 14.9751 8.55737 14.928 8.67104C14.8809 8.78471 14.8119 8.888 14.7249 8.975L10.6624 13.0375C10.5754 13.1246 10.4722 13.1937 10.3585 13.2408C10.2448 13.2879 10.123 13.3122 9.9999 13.3122C9.87684 13.3122 9.75499 13.2879 9.64131 13.2408C9.52763 13.1937 9.42436 13.1246 9.3374 13.0375L5.2749 8.975C5.1879 8.888 5.11889 8.78471 5.07181 8.67104C5.02472 8.55737 5.00049 8.43554 5.00049 8.3125C5.00049 8.18946 5.02472 8.06763 5.07181 7.95396C5.11889 7.84029 5.1879 7.737 5.2749 7.65C5.36191 7.563 5.46519 7.49399 5.57886 7.4469C5.69253 7.39982 5.81437 7.37558 5.9374 7.37558C6.06044 7.37558 6.18227 7.39982 6.29595 7.4469C6.40962 7.49399 6.5129 7.563 6.5999 7.65L9.0624 10.1112Z" fill="black"/>
</g>
</svg>
