<svg width="24" height="24" viewBox="0 0 24 24" fill="none" xmlns="http://www.w3.org/2000/svg">
<g clip-path="url(#clip0_1254_8477)">
<path d="M12 23.1431C18.1541 23.1431 23.1429 18.1543 23.1429 12.0003C23.1429 5.84625 18.1541 0.857422 12 0.857422C5.846 0.857422 0.857178 5.84625 0.857178 12.0003C0.857178 18.1543 5.846 23.1431 12 23.1431Z" stroke="black" stroke-width="1.71429" stroke-linecap="round" stroke-linejoin="round"/>
<path d="M9.42847 9.42885C9.42847 8.92027 9.57928 8.42311 9.86183 8.00024C10.1444 7.57737 10.546 7.24779 11.0159 7.05316C11.4857 6.85854 12.0027 6.80761 12.5016 6.90683C13.0004 7.00605 13.4585 7.25096 13.8182 7.61058C14.1778 7.9702 14.4227 8.42838 14.5219 8.92719C14.6211 9.426 14.5702 9.94303 14.3756 10.4129C14.181 10.8828 13.8514 11.2844 13.4285 11.5669C13.0056 11.8495 12.5085 12.0003 11.9999 12.0003V13.7146" stroke="black" stroke-width="1.71429" stroke-linecap="round" stroke-linejoin="round"/>
<path d="M12.0001 16.2852C11.7458 16.2852 11.4972 16.3606 11.2858 16.5018C11.0743 16.6431 10.9095 16.8439 10.8122 17.0788C10.7149 17.3138 10.6895 17.5723 10.7391 17.8217C10.7887 18.0711 10.9111 18.3002 11.0909 18.48C11.2707 18.6598 11.4998 18.7823 11.7492 18.8319C11.9986 18.8815 12.2572 18.856 12.4921 18.7587C12.727 18.6614 12.9278 18.4966 13.0691 18.2852C13.2104 18.0737 13.2858 17.8252 13.2858 17.5709C13.2813 17.2313 13.1445 16.9068 12.9043 16.6666C12.6641 16.4265 12.3397 16.2896 12.0001 16.2852Z" fill="black"/>
</g>
<defs>
<clipPath id="clip0_1254_8477">
<rect width="24" height="24" fill="white"/>
</clipPath>
</defs>
</svg>
