<svg width="25" height="25" viewBox="0 0 25 25" fill="none" xmlns="http://www.w3.org/2000/svg">
<g clip-path="url(#clip0_153_2566)">
<path d="M24.5 12.25C24.5 5.62263 19.1274 0.25 12.5 0.25C5.87262 0.25 0.5 5.62263 0.5 12.25C0.5 18.2395 4.88825 23.204 10.625 24.1042V15.7188H7.57812V12.25H10.625V9.60625C10.625 6.59875 12.4166 4.9375 15.1576 4.9375C16.4705 4.9375 17.8438 5.17188 17.8438 5.17188V8.125H16.3306C14.8399 8.125 14.375 9.05003 14.375 9.99906V12.25H17.7031L17.1711 15.7188H14.375V24.1042C20.1117 23.204 24.5 18.2396 24.5 12.25Z" fill="#1877F2"/>
<path d="M17.1711 15.7188L17.7031 12.25H14.375V9.99906C14.375 9.04994 14.8399 8.125 16.3306 8.125H17.8438V5.17188C17.8438 5.17188 16.4705 4.9375 15.1575 4.9375C12.4166 4.9375 10.625 6.59875 10.625 9.60625V12.25H7.57812V15.7188H10.625V24.1042C11.2453 24.2014 11.8722 24.2501 12.5 24.25C13.1278 24.2501 13.7547 24.2014 14.375 24.1042V15.7188H17.1711Z" fill="white"/>
</g>
<defs>
<clipPath id="clip0_153_2566">
<rect width="24" height="24" fill="white" transform="translate(0.5 0.25)"/>
</clipPath>
</defs>
</svg>
