<svg width="10" height="17" viewBox="0 0 10 17" fill="none" xmlns="http://www.w3.org/2000/svg">
<path fill-rule="evenodd" clip-rule="evenodd" d="M8.96408 13.4678H1.16797V15.5371V15.6331H1.17622C1.30785 16.3967 2.99907 17.0008 5.06602 17.0008C7.13298 17.0008 8.8242 16.3967 8.95583 15.6331H8.96408V15.5371V13.4678Z" fill="#D9D9D9"/>
<ellipse cx="5.06651" cy="13.6198" rx="3.89806" ry="1.67063" fill="#414040"/>
<ellipse cx="5.06693" cy="13.3657" rx="3.29057" ry="1.4175" fill="#4E4E4E"/>
<ellipse cx="5.06721" cy="13.2139" rx="2.88557" ry="1.26563" fill="white"/>
<rect x="3.39697" y="9.31641" width="3.34119" height="3.94876" fill="#5C5C5C"/>
<path fill-rule="evenodd" clip-rule="evenodd" d="M9.11395 6.06459C9.32236 5.55249 9.43717 4.99234 9.43717 4.40537C9.43717 1.97289 7.4653 0.000976562 5.03288 0.000976562C2.68041 0.000976562 0.758724 1.84537 0.63492 4.16702C0.389399 6.05008 0.706326 8.83166 2.5513 10.3802C4.81926 12.2837 7.4112 9.35077 8.42367 7.64639C8.60099 7.31262 8.89563 6.69131 9.11395 6.06459Z" fill="white"/>
<path fill-rule="evenodd" clip-rule="evenodd" d="M8.53831 2.57376C8.39295 2.91407 8.28527 2.94375 8.0042 2.92836C7.33967 2.94752 6.13237 3.23345 5.60181 4.14301L5.5727 4.19292C4.87351 5.39225 4.16285 6.61124 2.61499 5.71246C1.58686 5.11547 1.07703 4.59087 0.879758 4.29997C0.381315 3.70462 0.776377 2.41621 1.79849 1.36158C2.39815 0.742847 3.08499 0.337325 3.67362 0.204652C3.67504 0.201127 3.6765 0.197621 3.67799 0.194134C4.63979 -0.0590137 5.77706 -0.0739804 6.70174 0.321017C8.04209 0.893576 8.84206 1.71313 8.53831 2.57376Z" fill="#7D7B81"/>
<path d="M3.75193 0.760742L2.58758 1.8745L3.75193 2.482M3.75193 2.482L5.47315 0.760742M3.75193 2.482L4.99174 3.14013L6.68813 1.46949C5.81423 2.33012 3.95443 4.102 3.49881 4.86138M3.75193 2.482L2.48633 3.74763" stroke="white" stroke-width="0.404997" stroke-linecap="round" stroke-linejoin="round"/>
</svg>
