<svg width="25" height="25" viewBox="0 0 25 25" fill="none" xmlns="http://www.w3.org/2000/svg">
<g clip-path="url(#clip0_153_2560)">
<path d="M8.86055 1.03894C6.46258 1.87082 4.39457 3.44976 2.96029 5.54382C1.526 7.63789 0.801037 10.1367 0.891883 12.6733C0.982728 15.2098 1.88459 17.6504 3.46501 19.6364C5.04543 21.6225 7.22109 23.0495 9.67243 23.7077C11.6598 24.2205 13.7419 24.243 15.7399 23.7733C17.5499 23.3668 19.2233 22.4971 20.5962 21.2496C22.0251 19.9115 23.0622 18.2092 23.5962 16.3258C24.1765 14.2777 24.2798 12.1238 23.8981 10.0296H12.7381V14.6589H19.2012C19.072 15.3973 18.7952 16.102 18.3873 16.7309C17.9795 17.3598 17.4489 17.8999 16.8274 18.3189C16.0382 18.841 15.1485 19.1923 14.2156 19.3502C13.2798 19.5242 12.32 19.5242 11.3843 19.3502C10.4359 19.1541 9.53874 18.7627 8.74993 18.2008C7.48271 17.3038 6.5312 16.0294 6.03118 14.5596C5.52271 13.0622 5.52271 11.4388 6.03118 9.94144C6.3871 8.89185 6.97549 7.9362 7.75243 7.14582C8.64154 6.22472 9.76718 5.56631 11.0058 5.24284C12.2445 4.91936 13.5484 4.94331 14.7743 5.31207C15.732 5.60605 16.6078 6.1197 17.3318 6.81207C18.0606 6.08707 18.7881 5.36019 19.5143 4.63144C19.8893 4.23957 20.2981 3.86644 20.6674 3.46519C19.5622 2.43671 18.265 1.63643 16.8499 1.11019C14.2731 0.17455 11.4536 0.149406 8.86055 1.03894Z" fill="white"/>
<path d="M8.8607 1.03986C11.4536 0.149712 14.2731 0.174195 16.8501 1.10923C18.2654 1.63904 19.562 2.44318 20.6657 3.47548C20.2907 3.87673 19.8951 4.25173 19.5126 4.64173C18.7851 5.36798 18.0582 6.09173 17.332 6.81298C16.6079 6.12061 15.7321 5.60696 14.7745 5.31298C13.5489 4.94293 12.2451 4.91759 11.0061 5.23975C9.76712 5.5619 8.64079 6.2191 7.7507 7.13923C6.97377 7.92961 6.38538 8.88526 6.02945 9.93486L2.14258 6.92548C3.53384 4.16653 5.94273 2.05615 8.8607 1.03986Z" fill="#E33629"/>
<path d="M1.1114 9.90605C1.32032 8.87067 1.66716 7.86798 2.14265 6.9248L6.02953 9.94168C5.52105 11.4391 5.52105 13.0624 6.02953 14.5598C4.73453 15.5598 3.4389 16.5648 2.14265 17.5748C0.952308 15.2054 0.589275 12.5057 1.1114 9.90605Z" fill="#F8BD00"/>
<path d="M12.7381 10.0283H23.8981C24.2799 12.1226 24.1766 14.2764 23.5963 16.3246C23.0623 18.208 22.0252 19.9102 20.5963 21.2483C19.3419 20.2696 18.0819 19.2983 16.8275 18.3196C17.4494 17.9001 17.9802 17.3594 18.3881 16.7298C18.796 16.1003 19.0726 15.3948 19.2013 14.6558H12.7381C12.7363 13.1146 12.7381 11.5714 12.7381 10.0283Z" fill="#587DBD"/>
<path d="M2.14062 17.5746C3.43687 16.5746 4.7325 15.5696 6.0275 14.5596C6.52851 16.0299 7.48138 17.3044 8.75 18.2008C9.54127 18.7601 10.4404 19.1483 11.39 19.3408C12.3257 19.5148 13.2855 19.5148 14.2213 19.3408C15.1542 19.1829 16.0439 18.8316 16.8331 18.3096C18.0875 19.2883 19.3475 20.2596 20.6019 21.2383C19.2292 22.4866 17.5558 23.3568 15.7456 23.7639C13.7476 24.2336 11.6655 24.2111 9.67813 23.6983C8.10632 23.2786 6.63814 22.5388 5.36563 21.5252C4.01874 20.4559 2.91867 19.1083 2.14062 17.5746Z" fill="#319F43"/>
</g>
<defs>
<clipPath id="clip0_153_2560">
<rect width="24" height="24" fill="white" transform="translate(0.5 0.25)"/>
</clipPath>
</defs>
</svg>
