<svg width="30" height="24" viewBox="0 0 30 24" fill="none" xmlns="http://www.w3.org/2000/svg">
<path d="M0 20.3077C0 21.287 0.35119 22.2261 0.976311 22.9185C1.60143 23.611 2.44928 24 3.33333 24H26.6667C27.5507 24 28.3986 23.611 29.0237 22.9185C29.6488 22.2261 30 21.287 30 20.3077V15.6923H0V20.3077Z" fill="#138808"/>
<path d="M30 8.30769V3.69231C30 2.71305 29.6488 1.77389 29.0237 1.08145C28.3986 0.38901 27.5507 0 26.6667 0H3.33333C2.44928 0 1.60143 0.38901 0.976311 1.08145C0.35119 1.77389 0 2.71305 0 3.69231V8.30769H30Z" fill="#FF9933"/>
<path d="M0 8.0003H30V16.0006H0V8.0003Z" fill="#F7F7F7"/>
<path d="M15 15.6923C16.8409 15.6923 18.3333 14.0392 18.3333 12C18.3333 9.96079 16.8409 8.30769 15 8.30769C13.159 8.30769 11.6667 9.96079 11.6667 12C11.6667 14.0392 13.159 15.6923 15 15.6923Z" fill="#000080"/>
<path d="M15 15.1154C16.5533 15.1154 17.8125 13.7206 17.8125 12C17.8125 10.2794 16.5533 8.88462 15 8.88462C13.4467 8.88462 12.1875 10.2794 12.1875 12C12.1875 13.7206 13.4467 15.1154 15 15.1154Z" fill="#F7F7F7"/>
<path d="M15.0832 10.846L14.9998 11.446L14.9165 10.846L14.9998 9.04597L15.0832 10.846ZM14.3098 9.14659L14.6498 10.9087L14.8707 11.4644L14.8107 10.8617L14.3098 9.14659ZM13.6665 9.44197L14.4065 11.0463L14.7498 11.5198L14.5515 10.954L13.6665 9.44197ZM13.114 9.9109L14.204 11.2494L14.6465 11.6084L14.3223 11.1183L13.114 9.9109ZM12.6907 10.5229L14.0557 11.5032L14.5665 11.7229L14.139 11.3426L12.6907 10.5229ZM12.424 11.2355L13.9723 11.7903L14.5165 11.8567L14.0148 11.6121L12.424 11.2355ZM12.3332 11.9998L13.9582 12.0921L14.4998 11.9998L13.9582 11.9075L12.3332 11.9998ZM12.424 12.7641L14.0148 12.3875L14.5165 12.1429L13.9723 12.2094L12.424 12.7641ZM12.6907 13.4767L14.139 12.6571L14.5665 12.2767L14.0557 12.4964L12.6907 13.4767ZM13.114 14.0887L14.3223 12.8814L14.6465 12.3912L14.204 12.7503L13.114 14.0887ZM13.6665 14.5577L14.5515 13.0457L14.7498 12.4798L14.4065 12.9534L13.6665 14.5577ZM14.3098 14.8531L14.8107 13.138L14.8707 12.5352L14.6498 13.0909L14.3098 14.8531ZM14.9998 14.9537L15.0832 13.1537L14.9998 12.5537L14.9165 13.1537L14.9998 14.9537ZM15.6898 14.8531L15.3498 13.0909L15.129 12.5352L15.189 13.138L15.6898 14.8531ZM16.3332 14.5577L15.5932 12.9534L15.2498 12.4798L15.4482 13.0457L16.3332 14.5577ZM16.8857 14.0887L15.7957 12.7503L15.3532 12.3912L15.6773 12.8814L16.8857 14.0887ZM17.309 13.4767L15.944 12.4964L15.4332 12.2767L15.8607 12.6571L17.309 13.4767ZM17.5757 12.7641L16.0273 12.2094L15.4832 12.1429L15.9848 12.3875L17.5757 12.7641ZM17.6665 11.9998L16.0415 11.9075L15.4998 11.9998L16.0415 12.0921L17.6665 11.9998ZM17.5757 11.2355L15.9848 11.6121L15.4832 11.8567L16.0273 11.7903L17.5757 11.2355ZM17.309 10.5229L15.8607 11.3426L15.4332 11.7229L15.944 11.5032L17.309 10.5229ZM16.8857 9.9109L15.6773 11.1183L15.3532 11.6084L15.7957 11.2494L16.8857 9.9109ZM16.3332 9.44197L15.4482 10.954L15.2498 11.5198L15.5932 11.0463L16.3332 9.44197ZM15.6898 9.14659L15.189 10.8617L15.129 11.4644L15.3498 10.9087L15.6898 9.14659Z" fill="#6666B3"/>
<path d="M14.6333 9.1006C14.7254 9.1006 14.8 9.01795 14.8 8.91599C14.8 8.81403 14.7254 8.73137 14.6333 8.73137C14.5413 8.73137 14.4667 8.81403 14.4667 8.91599C14.4667 9.01795 14.5413 9.1006 14.6333 9.1006Z" fill="#000080"/>
<path d="M13.925 9.31106C14.017 9.31106 14.0917 9.22841 14.0917 9.12645C14.0917 9.02449 14.017 8.94183 13.925 8.94183C13.8329 8.94183 13.7583 9.02449 13.7583 9.12645C13.7583 9.22841 13.8329 9.31106 13.925 9.31106Z" fill="#000080"/>
<path d="M13.29 9.71629C13.382 9.71629 13.4567 9.63364 13.4567 9.53168C13.4567 9.42972 13.382 9.34706 13.29 9.34706C13.1979 9.34706 13.1233 9.42972 13.1233 9.53168C13.1233 9.63364 13.1979 9.71629 13.29 9.71629Z" fill="#000080"/>
<path d="M12.7717 10.2904C12.8637 10.2904 12.9383 10.2078 12.9383 10.1058C12.9383 10.0039 12.8637 9.92122 12.7717 9.92122C12.6796 9.92122 12.605 10.0039 12.605 10.1058C12.605 10.2078 12.6796 10.2904 12.7717 10.2904Z" fill="#000080"/>
<path d="M12.4058 10.9938C12.4979 10.9938 12.5725 10.9112 12.5725 10.8092C12.5725 10.7073 12.4979 10.6246 12.4058 10.6246C12.3138 10.6246 12.2392 10.7073 12.2392 10.8092C12.2392 10.9112 12.3138 10.9938 12.4058 10.9938Z" fill="#000080"/>
<path d="M12.2158 11.7784C12.3079 11.7784 12.3825 11.6958 12.3825 11.5938C12.3825 11.4919 12.3079 11.4092 12.2158 11.4092C12.1238 11.4092 12.0492 11.4919 12.0492 11.5938C12.0492 11.6958 12.1238 11.7784 12.2158 11.7784Z" fill="#000080"/>
<path d="M12.2158 12.5908C12.3079 12.5908 12.3825 12.5081 12.3825 12.4061C12.3825 12.3042 12.3079 12.2215 12.2158 12.2215C12.1238 12.2215 12.0492 12.3042 12.0492 12.4061C12.0492 12.5081 12.1238 12.5908 12.2158 12.5908Z" fill="#000080"/>
<path d="M12.4058 13.3754C12.4979 13.3754 12.5725 13.2927 12.5725 13.1908C12.5725 13.0888 12.4979 13.0061 12.4058 13.0061C12.3138 13.0061 12.2392 13.0888 12.2392 13.1908C12.2392 13.2927 12.3138 13.3754 12.4058 13.3754Z" fill="#000080"/>
<path d="M12.7717 14.0788C12.8637 14.0788 12.9383 13.9961 12.9383 13.8941C12.9383 13.7922 12.8637 13.7095 12.7717 13.7095C12.6796 13.7095 12.605 13.7922 12.605 13.8941C12.605 13.9961 12.6796 14.0788 12.7717 14.0788Z" fill="#000080"/>
<path d="M13.29 14.6529C13.382 14.6529 13.4567 14.5703 13.4567 14.4683C13.4567 14.3663 13.382 14.2837 13.29 14.2837C13.1979 14.2837 13.1233 14.3663 13.1233 14.4683C13.1233 14.5703 13.1979 14.6529 13.29 14.6529Z" fill="#000080"/>
<path d="M13.925 15.0581C14.017 15.0581 14.0917 14.9755 14.0917 14.8735C14.0917 14.7716 14.017 14.6889 13.925 14.6889C13.8329 14.6889 13.7583 14.7716 13.7583 14.8735C13.7583 14.9755 13.8329 15.0581 13.925 15.0581Z" fill="#000080"/>
<path d="M14.6333 15.2686C14.7254 15.2686 14.8 15.1859 14.8 15.084C14.8 14.982 14.7254 14.8994 14.6333 14.8994C14.5413 14.8994 14.4667 14.982 14.4667 15.084C14.4667 15.1859 14.5413 15.2686 14.6333 15.2686Z" fill="#000080"/>
<path d="M15.3667 15.2686C15.4587 15.2686 15.5333 15.1859 15.5333 15.084C15.5333 14.982 15.4587 14.8994 15.3667 14.8994C15.2746 14.8994 15.2 14.982 15.2 15.084C15.2 15.1859 15.2746 15.2686 15.3667 15.2686Z" fill="#000080"/>
<path d="M16.075 15.0581C16.167 15.0581 16.2417 14.9755 16.2417 14.8735C16.2417 14.7716 16.167 14.6889 16.075 14.6889C15.9829 14.6889 15.9083 14.7716 15.9083 14.8735C15.9083 14.9755 15.9829 15.0581 16.075 15.0581Z" fill="#000080"/>
<path d="M16.71 14.6529C16.802 14.6529 16.8767 14.5703 16.8767 14.4683C16.8767 14.3663 16.802 14.2837 16.71 14.2837C16.6179 14.2837 16.5433 14.3663 16.5433 14.4683C16.5433 14.5703 16.6179 14.6529 16.71 14.6529Z" fill="#000080"/>
<path d="M17.2283 14.0788C17.3204 14.0788 17.395 13.9961 17.395 13.8941C17.395 13.7922 17.3204 13.7095 17.2283 13.7095C17.1363 13.7095 17.0617 13.7922 17.0617 13.8941C17.0617 13.9961 17.1363 14.0788 17.2283 14.0788Z" fill="#000080"/>
<path d="M17.5942 13.3754C17.6862 13.3754 17.7608 13.2927 17.7608 13.1908C17.7608 13.0888 17.6862 13.0061 17.5942 13.0061C17.5021 13.0061 17.4275 13.0888 17.4275 13.1908C17.4275 13.2927 17.5021 13.3754 17.5942 13.3754Z" fill="#000080"/>
<path d="M17.7842 12.5908C17.8762 12.5908 17.9508 12.5081 17.9508 12.4061C17.9508 12.3042 17.8762 12.2215 17.7842 12.2215C17.6921 12.2215 17.6175 12.3042 17.6175 12.4061C17.6175 12.5081 17.6921 12.5908 17.7842 12.5908Z" fill="#000080"/>
<path d="M17.7842 11.7784C17.8762 11.7784 17.9508 11.6958 17.9508 11.5938C17.9508 11.4919 17.8762 11.4092 17.7842 11.4092C17.6921 11.4092 17.6175 11.4919 17.6175 11.5938C17.6175 11.6958 17.6921 11.7784 17.7842 11.7784Z" fill="#000080"/>
<path d="M17.5942 10.9938C17.6862 10.9938 17.7608 10.9112 17.7608 10.8092C17.7608 10.7073 17.6862 10.6246 17.5942 10.6246C17.5021 10.6246 17.4275 10.7073 17.4275 10.8092C17.4275 10.9112 17.5021 10.9938 17.5942 10.9938Z" fill="#000080"/>
<path d="M17.2283 10.2904C17.3204 10.2904 17.395 10.2078 17.395 10.1058C17.395 10.0039 17.3204 9.92122 17.2283 9.92122C17.1363 9.92122 17.0617 10.0039 17.0617 10.1058C17.0617 10.2078 17.1363 10.2904 17.2283 10.2904Z" fill="#000080"/>
<path d="M16.71 9.71629C16.802 9.71629 16.8767 9.63364 16.8767 9.53168C16.8767 9.42972 16.802 9.34706 16.71 9.34706C16.6179 9.34706 16.5433 9.42972 16.5433 9.53168C16.5433 9.63364 16.6179 9.71629 16.71 9.71629Z" fill="#000080"/>
<path d="M16.075 9.31106C16.167 9.31106 16.2417 9.22841 16.2417 9.12645C16.2417 9.02449 16.167 8.94183 16.075 8.94183C15.9829 8.94183 15.9083 9.02449 15.9083 9.12645C15.9083 9.22841 15.9829 9.31106 16.075 9.31106Z" fill="#000080"/>
<path d="M15.3667 9.1006C15.4587 9.1006 15.5333 9.01795 15.5333 8.91599C15.5333 8.81403 15.4587 8.73137 15.3667 8.73137C15.2746 8.73137 15.2 8.81403 15.2 8.91599C15.2 9.01795 15.2746 9.1006 15.3667 9.1006Z" fill="#000080"/>
<path d="M15 12.8308C15.4142 12.8308 15.75 12.4588 15.75 12C15.75 11.5412 15.4142 11.1692 15 11.1692C14.5858 11.1692 14.25 11.5412 14.25 12C14.25 12.4588 14.5858 12.8308 15 12.8308Z" fill="#000080"/>
</svg>
