<svg width="21" height="16" viewBox="0 0 21 16" fill="none" xmlns="http://www.w3.org/2000/svg">
<path d="M9.11994 11.648C9.46439 12.003 9.9066 12.1646 10.4466 12.1326C10.9866 12.1013 11.3807 11.9017 11.6288 11.5337L17.4654 3.16458L9.28661 9.12572C8.91476 9.38019 8.70772 9.77562 8.6655 10.312C8.62328 10.8484 8.77476 11.293 9.11994 11.648ZM10.4999 6.40256e-06C11.5214 6.40256e-06 12.451 0.128006 13.2888 0.384006C14.1273 0.639244 14.9629 1.02972 15.7955 1.55543L14.7732 2.26743C14.1192 1.9002 13.4421 1.62096 12.7421 1.42972C12.0421 1.23848 11.2947 1.14286 10.4999 1.14286C8.03699 1.14286 5.93959 2.03353 4.20775 3.81486C2.47591 5.5962 1.61036 7.75315 1.6111 10.2857C1.6111 11.0857 1.71777 11.8762 1.9311 12.6571C2.14443 13.4381 2.44517 14.1714 2.83332 14.8571H18.1665C18.5925 14.1333 18.9028 13.381 19.0977 12.6C19.2925 11.819 19.3895 11.0095 19.3888 10.1714C19.3888 9.48572 19.3028 8.76419 19.131 8.00686C18.9591 7.24953 18.6873 6.544 18.3154 5.89029L19.0088 4.83886C19.5495 5.79277 19.9321 6.69029 20.1565 7.53143C20.381 8.37257 20.4954 9.248 20.4999 10.1577C20.5043 11.1406 20.398 12.0579 20.181 12.9097C19.9647 13.7615 19.6276 14.6202 19.1699 15.4857C19.081 15.6381 18.9458 15.7619 18.7643 15.8571C18.5828 15.9524 18.3836 16 18.1665 16H2.83332C2.62962 16 2.44073 15.949 2.26665 15.8469C2.09332 15.744 1.9474 15.5943 1.82888 15.3977C1.46148 14.731 1.14814 13.979 0.888886 13.1417C0.629629 12.3044 0.5 11.3524 0.5 10.2857C0.5 8.88076 0.759258 7.55467 1.27777 6.30743C1.79555 5.06019 2.50258 3.968 3.39887 3.03086C4.29516 2.09372 5.35515 1.35391 6.57885 0.811435C7.80254 0.268959 9.10957 -0.00151741 10.4999 6.40256e-06Z" fill="#F1EDED"/>
</svg>
