<svg width="17" height="16" viewBox="0 0 17 16" fill="none" xmlns="http://www.w3.org/2000/svg">
<path d="M8.66999 14.7952C8.45905 15.0059 8.17311 15.1242 7.87499 15.1242C7.57686 15.1242 7.29092 15.0059 7.07999 14.7952L0.704987 8.42022C0.494311 8.20928 0.375977 7.92335 0.375977 7.62522C0.375977 7.3271 0.494311 7.04116 0.704987 6.83022L7.07999 0.455222C7.29338 0.256609 7.57546 0.148453 7.86693 0.153489C8.15841 0.158524 8.43658 0.276357 8.64299 0.482222C8.84885 0.688626 8.96668 0.966801 8.97172 1.25828C8.97676 1.54975 8.8686 1.83183 8.66999 2.04522L4.21499 6.50022H15.375C15.6734 6.50022 15.9595 6.61875 16.1705 6.82973C16.3815 7.0407 16.5 7.32685 16.5 7.62522C16.5 7.92359 16.3815 8.20974 16.1705 8.42072C15.9595 8.63169 15.6734 8.75022 15.375 8.75022H4.21499L8.66999 13.2052C8.88066 13.4162 8.999 13.7021 8.999 14.0002C8.999 14.2983 8.88066 14.5843 8.66999 14.7952Z" fill="black"/>
</svg>
