<svg width="24" height="24" viewBox="0 0 24 24" fill="none" xmlns="http://www.w3.org/2000/svg">
<path d="M18.894 17.3939L13.5915 22.6979C13.3825 22.907 13.1344 23.0728 12.8614 23.186C12.5883 23.2992 12.2956 23.3574 12 23.3574C11.7044 23.3574 11.4117 23.2992 11.1386 23.186C10.8655 23.0728 10.6174 22.907 10.4085 22.6979L5.106 17.3939C4.20057 16.4886 3.48232 15.4138 2.99226 14.2308C2.50221 13.0479 2.24995 11.7801 2.24988 10.4997C2.24981 9.21927 2.50193 7.95139 2.99186 6.76842C3.48178 5.58546 4.19991 4.51057 5.10525 3.60514C6.01058 2.69971 7.08539 1.98146 8.2683 1.49141C9.45121 1.00136 10.7191 0.749093 11.9995 0.749023C13.2799 0.748954 14.5478 1.00108 15.7307 1.491C16.9137 1.98093 17.9886 2.69906 18.894 3.60439C19.7995 4.50978 20.5178 5.58467 21.0079 6.76768C21.4979 7.95069 21.7502 9.21865 21.7502 10.4991C21.7502 11.7796 21.4979 13.0476 21.0079 14.2306C20.5178 15.4136 19.7995 16.4885 18.894 17.3939ZM17.304 5.19589C15.8973 3.78918 13.9894 2.9974 12 2.9974C10.0106 2.9974 8.10271 3.78768 6.696 5.19439C5.28929 6.6011 4.49901 8.50901 4.49901 10.4984C4.49901 12.4878 5.28929 14.3957 6.696 15.8024L12 21.1049L17.304 15.8039C18.0006 15.1074 18.5533 14.2805 18.9303 13.3705C19.3073 12.4604 19.5014 11.485 19.5014 10.4999C19.5014 9.51481 19.3073 8.53938 18.9303 7.62931C18.5533 6.71924 18.0006 5.89236 17.304 5.19589ZM12 13.4999C11.6005 13.5089 11.2032 13.4381 10.8315 13.2914C10.4597 13.1448 10.121 12.9254 9.83524 12.6461C9.54946 12.3668 9.32236 12.0332 9.16729 11.6649C9.01221 11.2966 8.93227 10.901 8.93217 10.5014C8.93207 10.1018 9.01181 9.70619 9.1667 9.33782C9.3216 8.96945 9.54853 8.63574 9.83416 8.35628C10.1198 8.07682 10.4584 7.85724 10.8301 7.71043C11.2017 7.56363 11.599 7.49256 11.9985 7.50139C12.7823 7.51873 13.5282 7.84223 14.0766 8.40265C14.6249 8.96307 14.932 9.71588 14.9322 10.4999C14.9324 11.2839 14.6256 12.0369 14.0776 12.5976C13.5296 13.1583 12.7838 13.4822 12 13.4999Z" fill="black"/>
</svg>
