<svg width="25" height="24" viewBox="0 0 25 24" fill="none" xmlns="http://www.w3.org/2000/svg">
<g opacity="0.4">
<path d="M12.3912 16.5C9.91624 16.5 7.89124 14.475 7.89124 12C7.89124 9.525 9.91624 7.5 12.3912 7.5C14.8662 7.5 16.8912 9.525 16.8912 12C16.8912 14.475 14.8662 16.5 12.3912 16.5ZM12.3912 9C10.7412 9 9.39124 10.35 9.39124 12C9.39124 13.65 10.7412 15 12.3912 15C14.0412 15 15.3912 13.65 15.3912 12C15.3912 10.35 14.0412 9 12.3912 9Z" fill="black"/>
<path d="M12.3912 19.5C7.60624 19.5 3.40624 16.59 1.93624 12.24C1.87599 12.0857 1.87599 11.9143 1.93624 11.76C3.40624 7.425 7.62124 4.5 12.3912 4.5C17.1612 4.5 21.3762 7.41 22.8462 11.76C22.9062 11.91 22.9062 12.09 22.8462 12.24C21.3762 16.575 17.1612 19.5 12.3912 19.5ZM3.43624 12C4.77123 15.6 8.34124 18 12.3912 18C16.4412 18 19.9962 15.6 21.3462 12C20.0112 8.4 16.4412 6 12.3912 6C8.34124 6 4.78624 8.4 3.43624 12Z" fill="black"/>
<path d="M21.3912 21.75C21.2929 21.7512 21.1953 21.7318 21.1049 21.693C21.0145 21.6543 20.9332 21.597 20.8662 21.525L2.86624 3.52499C2.56624 3.22499 2.56624 2.75999 2.86624 2.45999C3.16624 2.15999 3.63124 2.15999 3.93124 2.45999L21.9162 20.475C22.2162 20.775 22.2162 21.24 21.9162 21.54C21.7662 21.69 21.5712 21.765 21.3912 21.765V21.75Z" fill="black"/>
</svg>
