<svg width="61" height="60" viewBox="0 0 61 60" fill="none" xmlns="http://www.w3.org/2000/svg">
<rect x="0.5" width="60" height="60" rx="30" fill="#DBFFDA"/>
<rect x="5.5" y="5" width="50" height="50" rx="25" fill="#B2FDB1"/>
<path d="M45.7906 26.0656C45.2016 25.45 44.5922 24.8156 44.3625 24.2578C44.15 23.7469 44.1375 22.9 44.125 22.0797C44.1016 20.5547 44.0766 18.8266 42.875 17.625C41.6734 16.4234 39.9453 16.3984 38.4203 16.375C37.6 16.3625 36.7531 16.35 36.2422 16.1375C35.6859 15.9078 35.05 15.2984 34.4344 14.7094C33.3562 13.6734 32.1313 12.5 30.5 12.5C28.8687 12.5 27.6453 13.6734 26.5656 14.7094C25.95 15.2984 25.3156 15.9078 24.7578 16.1375C24.25 16.35 23.4 16.3625 22.5797 16.375C21.0547 16.3984 19.3266 16.4234 18.125 17.625C16.9234 18.8266 16.9062 20.5547 16.875 22.0797C16.8625 22.9 16.85 23.7469 16.6375 24.2578C16.4078 24.8141 15.7984 25.45 15.2094 26.0656C14.1734 27.1438 13 28.3687 13 30C13 31.6313 14.1734 32.8547 15.2094 33.9344C15.7984 34.55 16.4078 35.1844 16.6375 35.7422C16.85 36.2531 16.8625 37.1 16.875 37.9203C16.8984 39.4453 16.9234 41.1734 18.125 42.375C19.3266 43.5766 21.0547 43.6016 22.5797 43.625C23.4 43.6375 24.2469 43.65 24.7578 43.8625C25.3141 44.0922 25.95 44.7016 26.5656 45.2906C27.6438 46.3266 28.8687 47.5 30.5 47.5C32.1313 47.5 33.3547 46.3266 34.4344 45.2906C35.05 44.7016 35.6844 44.0922 36.2422 43.8625C36.7531 43.65 37.6 43.6375 38.4203 43.625C39.9453 43.6016 41.6734 43.5766 42.875 42.375C44.0766 41.1734 44.1016 39.4453 44.125 37.9203C44.1375 37.1 44.15 36.2531 44.3625 35.7422C44.5922 35.1859 45.2016 34.55 45.7906 33.9344C46.8266 32.8562 48 31.6313 48 30C48 28.3687 46.8266 27.1453 45.7906 26.0656ZM37.6344 27.1344L28.8844 35.8844C28.7683 36.0006 28.6304 36.0928 28.4787 36.1557C28.3269 36.2186 28.1643 36.251 28 36.251C27.8357 36.251 27.6731 36.2186 27.5213 36.1557C27.3696 36.0928 27.2317 36.0006 27.1156 35.8844L23.3656 32.1344C23.1311 31.8998 22.9993 31.5817 22.9993 31.25C22.9993 30.9183 23.1311 30.6002 23.3656 30.3656C23.6002 30.1311 23.9183 29.9993 24.25 29.9993C24.5817 29.9993 24.8998 30.1311 25.1344 30.3656L28 33.2328L35.8656 25.3656C35.9818 25.2495 36.1196 25.1574 36.2714 25.0945C36.4231 25.0317 36.5858 24.9993 36.75 24.9993C36.9142 24.9993 37.0769 25.0317 37.2286 25.0945C37.3804 25.1574 37.5182 25.2495 37.6344 25.3656C37.7505 25.4818 37.8426 25.6196 37.9055 25.7714C37.9683 25.9231 38.0007 26.0858 38.0007 26.25C38.0007 26.4142 37.9683 26.5769 37.9055 26.7286C37.8426 26.8804 37.7505 27.0182 37.6344 27.1344Z" fill="#07AC04"/>
</svg>
