<svg width="32" height="10" viewBox="0 0 32 10" fill="none" xmlns="http://www.w3.org/2000/svg">
<path d="M21.022 0.0013037L20.9698 0.00652099C20.0828 0.25436 20.2615 1.50399 18.6466 1.61096H18.4901C18.4673 1.61015 18.4445 1.61235 18.4222 1.61748H18.4209C18.3522 1.63397 18.2911 1.67324 18.2475 1.7289C18.2039 1.78456 18.1805 1.85333 18.1809 1.92402V3.34583C18.1809 3.52062 18.3192 3.6602 18.4901 3.6602H19.3314V9.69052C19.3314 9.8627 19.4671 10.001 19.6354 10.001H21.0154C21.0968 9.99994 21.1745 9.96669 21.2315 9.90851C21.2885 9.85032 21.3201 9.77194 21.3194 9.69052V3.6602H22.102C22.2716 3.6602 22.4099 3.52062 22.4099 3.34583V1.92402C22.4099 1.84188 22.3776 1.76304 22.32 1.70447C22.2624 1.64591 22.1841 1.61232 22.102 1.61096H21.3037V0.286971C21.3037 0.211757 21.2742 0.139544 21.2215 0.0858738C21.1688 0.0322037 21.0972 0.00267123 21.022 0.0013037ZM26.5331 1.52747C26.014 1.52747 25.5392 1.72314 25.1739 2.04272V1.88097C25.1687 1.80294 25.1345 1.72969 25.078 1.67561C25.0215 1.62154 24.9469 1.59056 24.8687 1.58878H23.473C23.3904 1.59015 23.3117 1.6241 23.254 1.68323C23.1964 1.74235 23.1644 1.82187 23.1651 1.90445V9.6266C23.1644 9.70918 23.1964 9.7887 23.254 9.84782C23.3117 9.90695 23.3904 9.9409 23.473 9.94227H24.8687C25.0252 9.94227 25.1517 9.82357 25.1726 9.66965V4.12587C25.1673 3.9914 25.215 3.86021 25.3056 3.76064C25.3961 3.66107 25.5222 3.6011 25.6565 3.59367H25.9122C26.0203 3.60125 26.1233 3.64228 26.207 3.71107C26.2681 3.76152 26.3168 3.82521 26.3496 3.89731C26.3823 3.9694 26.3983 4.04801 26.3962 4.12718V9.44137L26.4014 9.64356C26.401 9.72614 26.4333 9.80551 26.4912 9.86439C26.5491 9.92327 26.6279 9.95689 26.7105 9.95792H28.1062C28.1859 9.95633 28.262 9.92441 28.319 9.86866C28.3759 9.81291 28.4095 9.73754 28.4128 9.65791L28.4115 4.11935C28.4115 3.93673 28.4924 3.77238 28.6384 3.67585C28.7144 3.62431 28.8026 3.59372 28.8941 3.58715H29.1524C29.4524 3.61324 29.635 3.84803 29.635 4.11935C29.6415 5.94032 29.6402 7.77172 29.6402 9.62921C29.6399 9.71179 29.6722 9.79116 29.7301 9.85005C29.788 9.90893 29.8668 9.94254 29.9494 9.94357H31.3451C31.5147 9.94357 31.653 9.8027 31.653 9.62921V3.70324C31.653 3.29887 31.6086 3.12669 31.5486 2.95059C31.4097 2.53768 31.1452 2.17856 30.7919 1.92359C30.4387 1.66861 30.0146 1.53056 29.5789 1.52878H29.5594C29.2776 1.529 28.9989 1.58699 28.7404 1.69917C28.482 1.81135 28.2493 1.97533 28.0567 2.18099C27.6771 1.77923 27.1436 1.52878 26.5527 1.52878L26.5331 1.52747ZM0.64956 1.60965C0.609476 1.60999 0.569851 1.61823 0.532949 1.63388C0.496047 1.64954 0.46259 1.67231 0.434488 1.70089C0.406386 1.72948 0.384191 1.76332 0.369168 1.80049C0.354146 1.83765 0.346591 1.87741 0.346935 1.91749V9.64486C0.346935 9.81705 0.472159 9.95531 0.628689 9.95923H2.0505C2.22008 9.95923 2.35965 9.81965 2.35965 9.64617L2.36487 7.48344H3.69929C4.81717 7.48344 5.59461 6.69427 5.59461 5.5516V3.54541C5.59461 2.40143 4.81717 1.60965 3.69929 1.60965H0.64956ZM12.4311 1.60965C12.3485 1.61068 12.2697 1.6443 12.2118 1.70318C12.1539 1.76206 12.1216 1.84143 12.1219 1.92402V5.14593C12.1219 6.37208 12.9789 7.24343 14.1816 7.24343H15.0621C15.0621 7.24343 15.0829 7.24343 15.1103 7.24865C15.1907 7.25856 15.2646 7.29767 15.318 7.35851C15.3714 7.41936 15.4005 7.49771 15.3999 7.57866C15.3999 7.74824 15.2747 7.8852 15.1142 7.90607L15.0908 7.91129L14.6955 7.91912H13.0507C12.9685 7.92049 12.8902 7.95407 12.8327 8.01264C12.7751 8.0712 12.7428 8.15005 12.7428 8.23218V9.65399C12.7421 9.73658 12.7741 9.81609 12.8317 9.87522C12.8894 9.93434 12.9681 9.96829 13.0507 9.96966H15.3334C16.5335 9.96966 17.3905 9.09701 17.3905 7.87216V1.92402C17.3905 1.84188 17.3582 1.76304 17.3006 1.70447C17.243 1.64591 17.1647 1.61232 17.0826 1.61096H15.6869C15.6048 1.61232 15.5265 1.64591 15.4689 1.70447C15.4113 1.76304 15.379 1.84188 15.379 1.92402C15.3725 2.95059 15.379 3.91325 15.379 4.86548C15.378 4.95165 15.3433 5.03401 15.2824 5.09494C15.2215 5.15588 15.1391 5.19057 15.0529 5.19158H14.4673C14.38 5.19055 14.2966 5.15497 14.2355 5.09262C14.1744 5.03028 14.1405 4.94626 14.1411 4.85895C14.1477 3.87542 14.1346 2.90233 14.1346 1.92402C14.1346 1.84188 14.1024 1.76304 14.0448 1.70447C13.9872 1.64591 13.9089 1.61232 13.8268 1.61096L12.4311 1.60965ZM7.20817 1.61748C7.16834 1.61609 7.12863 1.62264 7.09136 1.63677C7.05409 1.6509 7.02001 1.67231 6.99111 1.69975C6.9622 1.7272 6.93906 1.76013 6.92303 1.79662C6.90699 1.83311 6.89839 1.87242 6.89772 1.91228V3.24669C6.89772 3.41888 7.04512 3.55976 7.22643 3.55976H9.06957C9.21567 3.58193 9.33046 3.6902 9.34742 3.85977V4.04239C9.33046 4.20414 9.21697 4.32154 9.0774 4.33458H8.16431C6.9512 4.33458 6.08507 5.15636 6.08507 6.31077V7.96608C6.08507 9.11396 6.82859 9.93053 8.03517 9.93053H10.5657C11.0197 9.93053 11.3875 9.57834 11.3875 9.14788V3.75281C11.3875 2.44317 10.7249 1.61748 9.14393 1.61748H7.20817ZM2.36487 3.66802H3.24926C3.43058 3.66802 3.57537 3.81803 3.57537 4.00195V5.09244C3.57589 5.13578 3.56786 5.1788 3.55175 5.21904C3.53564 5.25928 3.51176 5.29595 3.48148 5.32696C3.4512 5.35796 3.41511 5.38271 3.37526 5.39976C3.33542 5.41682 3.2926 5.42587 3.24926 5.42638H3.11882C2.8675 5.42812 2.61619 5.42812 2.36487 5.42638V3.66802ZM8.4565 6.24685H9.03696C9.21828 6.24685 9.36568 6.38773 9.36568 6.55991V7.77563C9.36609 7.80955 9.35989 7.84322 9.34742 7.87477C9.32419 7.93818 9.28185 7.99282 9.22624 8.03114C9.17063 8.06946 9.10449 8.08957 9.03696 8.08869H8.4565C8.37148 8.09045 8.28922 8.05852 8.22765 7.99988C8.16607 7.94124 8.13018 7.86063 8.12779 7.77563V6.55861C8.12779 6.38643 8.27518 6.24685 8.4565 6.24685Z" fill="black"/>
</svg>
