<svg width="11" height="10" viewBox="0 0 11 10" fill="none" xmlns="http://www.w3.org/2000/svg">
<path d="M5.45626 0.753108C5.58809 0.621436 5.7668 0.547477 5.95313 0.547477C6.13946 0.547477 6.31817 0.621436 6.45001 0.753108L10.4344 4.73748C10.5661 4.86932 10.64 5.04803 10.64 5.23436C10.64 5.42069 10.5661 5.5994 10.4344 5.73123L6.45001 9.71561C6.31664 9.83974 6.14034 9.90734 5.95817 9.90419C5.776 9.90104 5.60214 9.8274 5.47313 9.69873C5.34447 9.56973 5.27082 9.39587 5.26768 9.2137C5.26453 9.03153 5.33213 8.85523 5.45626 8.72186L8.24063 5.93748H1.26563C1.07915 5.93748 0.900311 5.8634 0.768449 5.73154C0.636588 5.59968 0.562509 5.42084 0.562509 5.23436C0.562509 5.04788 0.636588 4.86904 0.768449 4.73717C0.900311 4.60531 1.07915 4.53123 1.26563 4.53123H8.24063L5.45626 1.74686C5.32459 1.61502 5.25063 1.43631 5.25063 1.24998C5.25063 1.06365 5.32459 0.884945 5.45626 0.753108Z" fill="black"/>
</svg>
