<svg width="13" height="14" viewBox="0 0 13 14" fill="none" xmlns="http://www.w3.org/2000/svg">
<path d="M0.812677 10.163C1.14268 9.52434 1.83934 9.09634 2.68201 9.20234C3.5731 9.31073 4.4569 9.47236 5.32868 9.68634C6.66868 10.021 7.84268 10.6643 8.71068 11.2517L9.00401 11.4557L9.27068 11.6523L9.50934 11.8363L9.71868 12.0057L9.89668 12.1563L10.0433 12.2843C10.6053 12.785 10.2233 13.603 9.58668 13.663L9.51201 13.6663H3.78268C2.66134 13.6663 1.72934 13.103 1.04668 12.249C0.530677 11.6043 0.486011 10.7937 0.812677 10.163ZM11.1673 0.333008C11.7627 0.333008 12.0193 0.893008 12.1453 1.40634L12.1853 1.58501L12.2013 1.67034C12.2973 2.20167 12.3487 2.89834 12.3693 3.61434C12.4093 5.03101 12.328 6.68234 12.1513 7.47767C11.8433 8.86567 11.3913 9.83034 10.85 10.4117C10.2993 11.005 9.55534 11.2723 8.86934 10.929C8.34334 10.6663 8.02934 10.0417 7.85734 9.50901C7.60631 8.73263 7.61028 7.8963 7.86868 7.12234C8.00868 6.70101 8.26068 6.36101 8.53801 6.03767L8.78001 5.76367C9.07468 5.43367 9.37001 5.10367 9.57134 4.70167C9.86468 4.11501 9.94468 3.47301 9.96934 2.82834L9.97868 2.44167L9.98468 2.06834L9.98868 1.97634L10.002 1.78967C10.0653 1.07101 10.3113 0.333008 11.1673 0.333008Z" fill="#F1EDED"/>
</svg>
