<svg width="27" height="26" viewBox="0 0 27 26" fill="none" xmlns="http://www.w3.org/2000/svg">
<path d="M5.68315 25.1645C4.30498 25.1647 2.98203 24.6229 1.99981 23.6562L1.89148 23.5479C1.39798 23.0663 1.00586 22.4909 0.738231 21.8554C0.470597 21.22 0.332863 20.5374 0.333145 19.8479C0.331401 19.1014 0.477818 18.362 0.763911 17.6725C1.05 16.983 1.47009 16.3572 1.99981 15.8312L14.9165 3.0562C16.2289 1.68975 18.0255 0.893491 19.9193 0.838937C21.8131 0.784382 23.6526 1.4759 25.0415 2.76453C25.6679 3.38936 26.1636 4.13262 26.4998 4.95099C26.8361 5.76936 27.006 6.64647 26.9998 7.5312C26.9924 8.51928 26.7898 9.49617 26.4037 10.4057C26.0175 11.3153 25.4555 12.1395 24.7498 12.8312L13.1415 24.3312C13.0693 24.4283 12.9769 24.5085 12.8706 24.5662C12.7644 24.624 12.6468 24.6579 12.5261 24.6657C12.4054 24.6734 12.2844 24.6548 12.1717 24.6111C12.0589 24.5674 11.957 24.4997 11.873 24.4126C11.789 24.3256 11.725 24.2213 11.6854 24.107C11.6457 23.9928 11.6315 23.8712 11.6435 23.7509C11.6556 23.6305 11.6937 23.5143 11.7552 23.4101C11.8168 23.306 11.9002 23.2165 11.9998 23.1479L23.5748 11.6479C24.1245 11.1113 24.5628 10.4714 24.8646 9.76491C25.1663 9.05845 25.3256 8.29936 25.3331 7.5312C25.3392 6.8664 25.2126 6.20708 24.9607 5.5918C24.7089 4.97652 24.3369 4.41764 23.8665 3.94786C22.7897 2.96692 21.3708 2.44788 19.9152 2.50243C18.4596 2.55697 17.0835 3.18075 16.0831 4.23953L3.20815 17.0145C2.82874 17.3829 2.52649 17.8232 2.31903 18.3097C2.11157 18.7961 2.00305 19.319 1.99981 19.8479C1.99803 20.3122 2.08845 20.7723 2.26583 21.2015C2.44322 21.6306 2.70403 22.0203 3.03315 22.3479L3.14148 22.4562C3.8871 23.1428 4.87253 23.5092 5.8856 23.4765C6.89868 23.4437 7.85839 23.0145 8.55815 22.2812L19.6831 11.2812C19.8935 11.0685 20.0594 10.8159 20.171 10.5383C20.2826 10.2607 20.3377 9.96368 20.3331 9.66453C20.335 9.4047 20.2851 9.1471 20.1864 8.90674C20.0876 8.66638 19.9421 8.44807 19.7581 8.26453C19.3373 7.87862 18.7816 7.67368 18.211 7.69395C17.6403 7.71422 17.1005 7.95807 16.7081 8.37286L9.04148 15.9729C8.88456 16.1287 8.67217 16.2158 8.45103 16.215C8.2299 16.2142 8.01813 16.1256 7.86231 15.9687C7.7065 15.8118 7.6194 15.5994 7.62018 15.3783C7.62096 15.1571 7.70956 14.9453 7.86648 14.7895L15.5665 7.16453C16.2723 6.44147 17.2341 6.02486 18.2443 6.00459C19.2545 5.98432 20.2322 6.36202 20.9665 7.0562C21.3042 7.39994 21.5696 7.80784 21.747 8.25582C21.9245 8.7038 22.0105 9.18279 21.9998 9.66453C21.9989 10.1833 21.8945 10.6967 21.6928 11.1746C21.491 11.6525 21.1959 12.0854 20.8248 12.4479L9.73314 23.4812C8.65806 24.5546 7.20234 25.1596 5.68315 25.1645Z" fill="white"/>
</svg>
