<svg width="20" height="16" viewBox="0 0 20 16" fill="none" xmlns="http://www.w3.org/2000/svg">
<path d="M4.29292 0.293C4.48045 0.105529 4.73475 0.000213623 4.99992 0.000213623C5.26508 0.000213623 5.51939 0.105529 5.70692 0.293L9.70692 4.293C9.88908 4.4816 9.98987 4.7342 9.98759 4.9964C9.98531 5.2586 9.88015 5.50941 9.69474 5.69482C9.50933 5.88023 9.25852 5.9854 8.99632 5.98767C8.73412 5.98995 8.48152 5.88916 8.29292 5.707L5.99992 3.414V15C5.99992 15.2652 5.89456 15.5196 5.70703 15.7071C5.51949 15.8946 5.26514 16 4.99992 16C4.7347 16 4.48035 15.8946 4.29281 15.7071C4.10528 15.5196 3.99992 15.2652 3.99992 15V3.414L1.70692 5.707C1.51832 5.88916 1.26571 5.98995 1.00352 5.98767C0.741321 5.9854 0.490508 5.88023 0.3051 5.69482C0.119692 5.50941 0.0145233 5.2586 0.0122448 4.9964C0.00996641 4.7342 0.110761 4.4816 0.292919 4.293L4.29292 0.293ZM13.9999 12.586V1C13.9999 0.734784 14.1053 0.48043 14.2928 0.292893C14.4803 0.105357 14.7347 0 14.9999 0C15.2651 0 15.5195 0.105357 15.707 0.292893C15.8946 0.48043 15.9999 0.734784 15.9999 1V12.586L18.2929 10.293C18.4815 10.1108 18.7341 10.01 18.9963 10.0123C19.2585 10.0146 19.5093 10.1198 19.6947 10.3052C19.8801 10.4906 19.9853 10.7414 19.9876 11.0036C19.9899 11.2658 19.8891 11.5184 19.7069 11.707L15.7069 15.707C15.5194 15.8945 15.2651 15.9998 14.9999 15.9998C14.7348 15.9998 14.4804 15.8945 14.2929 15.707L10.2929 11.707C10.1108 11.5184 10.01 11.2658 10.0122 11.0036C10.0145 10.7414 10.1197 10.4906 10.3051 10.3052C10.4905 10.1198 10.7413 10.0146 11.0035 10.0123C11.2657 10.01 11.5183 10.1108 11.7069 10.293L13.9999 12.586Z" fill="black"/>
</svg>
