<svg width="32" height="14" viewBox="0 0 32 14" fill="none" xmlns="http://www.w3.org/2000/svg">
<path d="M12.2941 0.179364L8.2616 10.0024H5.63084L3.64641 2.16269C3.5261 1.68099 3.42155 1.50371 3.05544 1.30002C2.457 0.968076 1.46875 0.657628 0.600098 0.464504L0.65869 0.179364H4.89417C5.43317 0.179364 5.91851 0.545833 6.04195 1.18036L7.09048 6.86511L9.67912 0.179364H12.2941ZM15.8505 0.179364L13.7928 10.0024H11.3038L13.3618 0.179364H15.8505ZM22.602 6.79521C22.6124 4.20315 19.092 4.05929 19.115 2.90116C19.1234 2.54906 19.4519 2.17424 20.1709 2.07841C20.527 2.03136 21.5109 1.99389 22.6253 2.51823L23.0614 0.433914C22.4626 0.21278 21.692 0 20.7334 0C18.273 0 16.5423 1.33442 16.5285 3.24674C16.5124 4.66126 17.7647 5.4496 18.7065 5.92074C19.6766 6.40183 20.0019 6.71105 19.9975 7.14103C19.9905 7.80014 19.2227 8.09191 18.5089 8.10272C17.2571 8.12299 16.5315 7.75726 15.9527 7.48195L15.5009 9.6353C16.0832 9.90779 17.1564 10.1445 18.268 10.1566C20.8836 10.1566 22.5943 8.83738 22.602 6.79521ZM29.0989 10.0025H31.4001L29.3897 0.179364H27.2665C26.7877 0.179364 26.3852 0.463153 26.2067 0.899402L22.4722 10.0024H25.0857L25.6042 8.53504H28.7973L29.0989 10.0025ZM26.3209 6.52223L27.6313 2.83334L28.3841 6.52223H26.3209ZM19.0359 12.7064H18.0246V13.6674H19.1558V13.9564H17.6839V11.2901H19.0978V11.5791H18.0246V12.4215H19.0358L19.0359 12.7064ZM19.6783 11.1479H20.019V13.9563H19.6783V11.1479ZM20.8788 13.0623C20.8865 13.5332 21.1771 13.7269 21.5217 13.7269C21.766 13.7269 21.9169 13.6834 22.0411 13.6281L22.1029 13.8774C21.9829 13.9327 21.7738 13.9999 21.4753 13.9999C20.8983 13.9999 20.5536 13.6083 20.5536 13.0307C20.5536 12.4533 20.8865 12.0022 21.4328 12.0022C22.0488 12.0022 22.2076 12.5483 22.2076 12.9002C22.2076 12.9714 22.2036 13.0227 22.1958 13.0624L20.8788 13.0623ZM21.8782 12.8131C21.8822 12.5957 21.7892 12.2514 21.4056 12.2514C21.057 12.2514 20.9097 12.5718 20.8825 12.8131H21.8782ZM24.0624 13.8891C23.9733 13.9327 23.7757 14 23.524 14C22.9584 14 22.5903 13.6083 22.5903 13.0228C22.5903 12.4334 22.9853 12.0023 23.5975 12.0023C23.7989 12.0023 23.9771 12.0535 24.0701 12.1051L23.9928 12.3701C23.9111 12.3266 23.7834 12.279 23.5975 12.279C23.1674 12.279 22.9352 12.6073 22.9352 13.0032C22.9352 13.4461 23.214 13.719 23.5859 13.719C23.7796 13.719 23.9074 13.6716 24.0042 13.6281L24.0624 13.8891ZM25.0186 11.5829V12.0417H25.5066V12.3066H25.0186V13.3392C25.0186 13.5768 25.0845 13.7111 25.2743 13.7111C25.3671 13.7111 25.4215 13.7033 25.4719 13.6872L25.4875 13.9526C25.4215 13.9762 25.317 13.9999 25.1852 13.9999C25.0263 13.9999 24.8984 13.9445 24.8172 13.8537C24.7242 13.7467 24.6855 13.5768 24.6855 13.3512V12.3066H24.3948V12.0417H24.6855V11.6857L25.0186 11.5829ZM25.9827 12.6392C25.9827 12.4136 25.9786 12.2199 25.9671 12.0417H26.2655L26.2812 12.4213H26.2925C26.3779 12.1645 26.5869 12.0022 26.8153 12.0022C26.8504 12.0022 26.8776 12.0062 26.9086 12.01V12.3385C26.8737 12.3304 26.8389 12.3304 26.7921 12.3304C26.5522 12.3304 26.3815 12.5124 26.3352 12.7737C26.3272 12.8274 26.3233 12.8816 26.3235 12.9359V13.9565H25.9827V12.6392ZM29.0038 12.9832C29.0038 13.6913 28.5195 13.9999 28.0702 13.9999C27.5665 13.9999 27.1715 13.62 27.1715 13.015C27.1715 12.378 27.5859 12.0023 28.1012 12.0023C28.6396 12.0023 29.0038 12.4014 29.0038 12.9832ZM27.52 13.0032C27.52 13.4225 27.7525 13.7391 28.0856 13.7391C28.4112 13.7391 28.655 13.4263 28.655 12.9952C28.655 12.6709 28.4962 12.2632 28.0933 12.2632C27.6945 12.2632 27.52 12.6432 27.52 13.0032ZM29.5262 12.56C29.5262 12.3584 29.5221 12.2001 29.5106 12.042H29.8128L29.8322 12.3584H29.8399C29.9329 12.1803 30.1498 12.0024 30.4597 12.0024C30.7191 12.0024 31.1222 12.1607 31.1222 12.8171V13.9565H30.7813V12.8528C30.7813 12.5444 30.669 12.2871 30.3475 12.2871C30.1266 12.2871 29.9521 12.4494 29.8904 12.6431C29.8748 12.6867 29.8671 12.7459 29.8671 12.8054V13.9565H29.5262V12.56Z" fill="#1A1F71"/>
</svg>
