<svg width="20" height="20" viewBox="0 0 20 20" fill="none" xmlns="http://www.w3.org/2000/svg">
<path d="M17.05 2.91006C16.1332 1.98399 15.0412 1.24973 13.8376 0.750111C12.6341 0.250494 11.3431 -0.00448012 10.04 5.95696e-05C4.58 5.95696e-05 0.130003 4.45006 0.130003 9.91006C0.130003 11.6601 0.590003 13.3601 1.45 14.8601L0.0500031 20.0001L5.3 18.6201C6.75 19.4101 8.38 19.8301 10.04 19.8301C15.5 19.8301 19.95 15.3801 19.95 9.92006C19.95 7.27006 18.92 4.78006 17.05 2.91006ZM10.04 18.1501C8.56 18.1501 7.11 17.7501 5.84 17.0001L5.54 16.8201L2.42 17.6401L3.25 14.6001L3.05 14.2901C2.22775 12.977 1.79114 11.4593 1.79 9.91006C1.79 5.37006 5.49 1.67006 10.03 1.67006C12.23 1.67006 14.3 2.53006 15.85 4.09006C16.6175 4.85402 17.2257 5.76272 17.6394 6.76348C18.0531 7.76425 18.264 8.83717 18.26 9.92006C18.28 14.4601 14.58 18.1501 10.04 18.1501ZM14.56 11.9901C14.31 11.8701 13.09 11.2701 12.87 11.1801C12.64 11.1001 12.48 11.0601 12.31 11.3001C12.14 11.5501 11.67 12.1101 11.53 12.2701C11.39 12.4401 11.24 12.4601 10.99 12.3301C10.74 12.2101 9.94 11.9401 9 11.1001C8.26 10.4401 7.77 9.63006 7.62 9.38006C7.48 9.13006 7.6 9.00006 7.73 8.87006C7.84 8.76006 7.98 8.58006 8.1 8.44006C8.22 8.30006 8.27 8.19006 8.35 8.03006C8.43 7.86006 8.39 7.72006 8.33 7.60006C8.27 7.48006 7.77 6.26006 7.57 5.76006C7.37 5.28006 7.16 5.34006 7.01 5.33006H6.53C6.36 5.33006 6.1 5.39006 5.87 5.64006C5.65 5.89006 5.01 6.49006 5.01 7.71006C5.01 8.93006 5.9 10.1101 6.02 10.2701C6.14 10.4401 7.77 12.9401 10.25 14.0101C10.84 14.2701 11.3 14.4201 11.66 14.5301C12.25 14.7201 12.79 14.6901 13.22 14.6301C13.7 14.5601 14.69 14.0301 14.89 13.4501C15.1 12.8701 15.1 12.3801 15.03 12.2701C14.96 12.1601 14.81 12.1101 14.56 11.9901Z" fill="black"/>
</svg>
